<?xml version="1.0" encoding="UTF-8"?>
<svg width="182px" height="138px" viewBox="0 0 182 138" version="1.1" xmlns="http://www.w3.org/2000/svg" xmlns:xlink="http://www.w3.org/1999/xlink">
    <!-- Generator: Sketch 52.5 (67469) - http://www.bohemiancoding.com/sketch -->
    <title>分组 8</title>
    <desc>Created with Sketch.</desc>
    <g id="测试" stroke="none" stroke-width="1" fill="none" fill-rule="evenodd">
        <g id="illustrations" transform="translate(-212.000000, -881.000000)">
            <g id="分组-8" transform="translate(212.000000, 881.000000)">
                <g id="分组-7">
                    <rect id="Rectangle-8-Copy-5" fill="#DEE0ED" x="0" y="0" width="170" height="126" rx="10"></rect>
                    <rect id="Rectangle-21-Copy-10" fill="#E7E9F3" x="62" y="8" width="86" height="8" rx="4"></rect>
                    <rect id="Rectangle-21-Copy-11" fill="#F9FAFF" x="10" y="8" width="8" height="8" rx="4"></rect>
                    <rect id="Rectangle-21-Copy-12" fill="#F9FAFF" x="24" y="8" width="8" height="8" rx="4"></rect>
                    <rect id="Rectangle-21-Copy-13" fill="#F9FAFF" x="38" y="8" width="8" height="8" rx="4"></rect>
                    <path d="M0,24 L170,24 L170,116 C170,121.522847 165.522847,126 160,126 L10,126 C4.4771525,126 6.76353751e-16,121.522847 0,116 L0,24 Z" id="Rectangle-8-Copy-6" fill="#F2F4FD"></path>
                    <rect id="矩形" fill="#DEE0ED" x="14" y="36" width="18" height="18" rx="4"></rect>
                    <rect id="矩形-copy" fill="#DEE0ED" x="14" y="64" width="18" height="18" rx="4"></rect>
                    <rect id="矩形-copy-2" fill="#DEE0ED" x="14" y="92" width="18" height="18" rx="4"></rect>
                    <rect id="Rectangle-9" fill="#E8EAF4" x="42" y="39" width="110" height="4" rx="2"></rect>
                    <rect id="Rectangle-9-Copy" fill="#E8EAF4" x="42" y="67" width="110" height="4" rx="2"></rect>
                    <rect id="Rectangle-9-Copy-2" fill="#E8EAF4" x="42" y="95" width="110" height="4" rx="2"></rect>
                    <rect id="Rectangle-9-Copy-3" fill="#E8EAF4" x="42" y="47" width="37" height="4" rx="2"></rect>
                    <rect id="Rectangle-9-Copy-4" fill="#E8EAF4" x="42" y="75" width="37" height="4" rx="2"></rect>
                    <rect id="Rectangle-9-Copy-5" fill="#E8EAF4" x="42" y="103" width="37" height="4" rx="2"></rect>
                </g>
                <g id="分组-6" transform="translate(74.000000, 68.000000)">
                    <rect id="Rectangle-2" fill="#FFBA1C" x="0" y="0" width="108" height="32" rx="6"></rect>
                    <rect id="矩形-copy" fill="#2A2E76" x="10" y="7" width="18" height="18" rx="4"></rect>
                    <path d="M20,20 L15,20 L15,17 L20,17 L20,9 L23,9 L23,20 L20,20 Z" id="Combined-Shape" fill="#F2F4FD" transform="translate(19.000000, 14.500000) rotate(45.000000) translate(-19.000000, -14.500000) "></path>
                    <rect id="Rectangle-9-Copy" fill="#6776C4" x="38" y="10" width="60" height="4" rx="2"></rect>
                    <rect id="Rectangle-9-Copy-4" fill="#6776C4" x="38" y="18" width="32" height="4" rx="2"></rect>
                </g>
                <g id="分组-6-copy" transform="translate(74.000000, 106.000000)">
                    <rect id="Rectangle-2" fill="#6776C4" x="0" y="0" width="108" height="32" rx="6"></rect>
                    <rect id="矩形-copy" fill="#2A2E76" x="10" y="7" width="18" height="18" rx="4"></rect>
                    <path d="M20,20 L15,20 L15,17 L20,17 L20,9 L23,9 L23,20 L20,20 Z" id="Combined-Shape" fill="#E0E5FF" transform="translate(19.000000, 14.500000) rotate(45.000000) translate(-19.000000, -14.500000) "></path>
                    <rect id="Rectangle-9-Copy" fill="#E0E5FF" x="38" y="10" width="60" height="4" rx="2"></rect>
                    <rect id="Rectangle-9-Copy-4" fill="#E0E5FF" x="38" y="18" width="32" height="4" rx="2"></rect>
                </g>
            </g>
        </g>
    </g>
</svg>