<?xml version="1.0" encoding="UTF-8"?>
<svg width="192px" height="148px" viewBox="0 0 192 148" version="1.1" xmlns="http://www.w3.org/2000/svg" xmlns:xlink="http://www.w3.org/1999/xlink">
    <!-- Generator: Sketch 52.5 (67469) - http://www.bohemiancoding.com/sketch -->
    <title>分组 4</title>
    <desc>Created with Sketch.</desc>
    <g id="测试" stroke="none" stroke-width="1" fill="none" fill-rule="evenodd">
        <g id="illustrations" transform="translate(-212.000000, -261.000000)">
            <g id="分组-4" transform="translate(212.000000, 261.000000)">
                <g id="分组-2">
                    <rect id="Rectangle-8-Copy-5" fill="#DEE0ED" x="0" y="0" width="170" height="126" rx="10"></rect>
                    <rect id="Rectangle-21-Copy-10" fill="#E7E9F3" x="62" y="8" width="86" height="8" rx="4"></rect>
                    <rect id="Rectangle-21-Copy-11" fill="#F9FAFF" x="10" y="8" width="8" height="8" rx="4"></rect>
                    <rect id="Rectangle-21-Copy-12" fill="#F9FAFF" x="24" y="8" width="8" height="8" rx="4"></rect>
                    <rect id="Rectangle-21-Copy-13" fill="#F9FAFF" x="38" y="8" width="8" height="8" rx="4"></rect>
                    <path d="M0,24 L170,24 L170,116 C170,121.522847 165.522847,126 160,126 L10,126 C4.4771525,126 6.76353751e-16,121.522847 0,116 L0,24 Z" id="Rectangle-8-Copy-6" fill="#F2F4FD"></path>
                    <circle id="Oval-2-Copy-6" fill="#DEE0ED" cx="18" cy="57" r="4"></circle>
                    <circle id="Oval-2-Copy-7" fill="#DEE0ED" cx="18" cy="74" r="4"></circle>
                    <circle id="Oval-2-Copy-8" fill="#DEE0ED" cx="18" cy="91" r="4"></circle>
                    <circle id="Oval-2-Copy-9" fill="#DEE0ED" cx="18" cy="108" r="4"></circle>
                    <rect id="Rectangle-9-Copy-12" fill="#E8EAF4" x="14" y="36" width="40" height="8" rx="4"></rect>
                    <rect id="Rectangle-9-Copy-18" fill="#E8EAF4" x="64" y="36" width="40" height="8" rx="4"></rect>
                    <rect id="Rectangle-9-Copy-19" fill="#E8EAF4" x="114" y="36" width="40" height="8" rx="4"></rect>
                    <rect id="Rectangle-9-Copy-15" fill="#E8EAF4" x="27" y="53" width="26" height="8" rx="4"></rect>
                    <rect id="Rectangle-9-Copy-21" fill="#E8EAF4" x="64" y="53" width="40" height="8" rx="4"></rect>
                    <rect id="Rectangle-9-Copy-16" fill="#E8EAF4" x="27" y="70" width="26" height="8" rx="4"></rect>
                    <rect id="Rectangle-9-Copy-22" fill="#E8EAF4" x="64" y="70" width="40" height="8" rx="4"></rect>
                    <rect id="Rectangle-9-Copy-17" fill="#E8EAF4" x="27" y="87" width="26" height="8" rx="4"></rect>
                    <rect id="Rectangle-9-Copy-23" fill="#E8EAF4" x="64" y="87" width="40" height="8" rx="4"></rect>
                    <rect id="Rectangle-9-Copy-20" fill="#E8EAF4" x="27" y="104" width="26" height="8" rx="4"></rect>
                    <rect id="Rectangle-9-Copy-24" fill="#E8EAF4" x="64" y="104" width="40" height="8" rx="4"></rect>
                </g>
                <g id="分组-3" transform="translate(94.000000, 48.000000)">
                    <rect id="Rectangle-8-Copy-7" fill="#6776C4" x="0" y="0" width="98" height="100" rx="6"></rect>
                    <rect id="Rectangle-14-Copy-21" fill="#F2F4FD" x="8" y="10" width="22" height="14" rx="2"></rect>
                    <rect id="Rectangle-14-Copy-36" fill="#F2F4FD" x="38" y="10" width="22" height="14" rx="2"></rect>
                    <rect id="Rectangle-14-Copy-37" fill="#F2F4FD" x="68" y="10" width="22" height="14" rx="2"></rect>
                    <rect id="Rectangle-14-Copy-41" fill="#3D42A3" x="8" y="78" width="82" height="4" rx="2"></rect>
                    <rect id="Rectangle-14-Copy-40" fill="#3D42A3" x="8" y="70" width="82" height="4" rx="2"></rect>
                    <rect id="Rectangle-14-Copy-42" fill="#3D42A3" x="8" y="86" width="54" height="4" rx="2"></rect>
                    <g id="分组" transform="translate(38.000000, 31.000000)">
                        <rect id="Rectangle-14-Copy-27" fill="#FFBA1C" x="0" y="0" width="52" height="31.2" rx="2"></rect>
                        <path d="M19.7886415,14.5211303 L37.2666667,30.8742948 L37.2666667,30.8742948 C37.2666667,31.0541768 37.1208435,31.2 36.9409615,31.2 L1.73333333,31.2 L16.9490259,14.6288778 C17.6960907,13.8152637 18.961271,13.7613148 19.7748851,14.5083797 C19.7794905,14.5126084 19.784076,14.5168586 19.7886415,14.5211303 Z" id="Rectangle-14-Copy-28" fill="#2A2E76"></path>
                        <path d="M38.9058968,9.46385778 L52,23.8621079 L52,29.2 C52,30.3045695 51.1045695,31.2 50,31.2 L17.3333333,31.2 L35.9070971,9.5086499 C36.6255216,8.66963858 37.8880728,8.57188368 38.7270841,9.2903082 C38.7902378,9.34438509 38.8499579,9.40234742 38.9058968,9.46385778 Z" id="Rectangle-14-Copy-29" fill="#3D42A3"></path>
                        <circle id="Oval-10-Copy" fill="#FFFFFF" cx="13" cy="8.66666667" r="3.46666667"></circle>
                    </g>
                    <path d="M10,31 L18,31 C19.1045695,31 20,31.8954305 20,33 L20,33 C20,34.1045695 19.1045695,35 18,35 L10,35 C8.8954305,35 8,34.1045695 8,33 L8,33 C8,31.8954305 8.8954305,31 10,31 Z" id="Rectangle-14-Copy-30" fill="#F2F4FD"></path>
                    <path d="M10,39 L28,39 C29.1045695,39 30,39.8954305 30,41 L30,41 C30,42.1045695 29.1045695,43 28,43 L10,43 C8.8954305,43 8,42.1045695 8,41 L8,41 C8,39.8954305 8.8954305,39 10,39 Z" id="Rectangle-14-Copy-33" fill="#F2F4FD"></path>
                    <path d="M10,47 L28,47 C29.1045695,47 30,47.8954305 30,49 L30,49 C30,50.1045695 29.1045695,51 28,51 L10,51 C8.8954305,51 8,50.1045695 8,49 L8,49 C8,47.8954305 8.8954305,47 10,47 Z" id="Rectangle-14-Copy-43" fill="#F2F4FD"></path>
                    <path d="M10,55 L28,55 C29.1045695,55 30,55.8954305 30,57 L30,57 C30,58.1045695 29.1045695,59 28,59 L10,59 C8.8954305,59 8,58.1045695 8,57 L8,57 C8,55.8954305 8.8954305,55 10,55 Z" id="Rectangle-14-Copy-44" fill="#F2F4FD"></path>
                </g>
            </g>
        </g>
    </g>
</svg>