<?xml version="1.0" encoding="UTF-8"?>
<svg width="339px" height="207px" viewBox="0 0 339 207" version="1.1" xmlns="http://www.w3.org/2000/svg" xmlns:xlink="http://www.w3.org/1999/xlink">
    <title>测试计划</title>
    <g id="页面-1" stroke="none" stroke-width="1" fill="none" fill-rule="evenodd">
        <g id="新主题缺省图" transform="translate(-1330.000000, -399.000000)">
            <g id="测试计划" transform="translate(1331.000000, 400.000000)">
                <g id="编组-21" transform="translate(144.898283, 15.000000)">
                    <line x1="0" y1="6" x2="12" y2="6" id="直线-8" stroke="#5365EA" stroke-width="1.5" stroke-linecap="square"></line>
                    <line x1="0" y1="6" x2="12" y2="6" id="直线-8" stroke="#5365EA" stroke-width="1.5" stroke-linecap="square" transform="translate(6.000000, 6.000000) rotate(90.000000) translate(-6.000000, -6.000000) "></line>
                    <rect id="矩形" fill="#5365EA" transform="translate(6.000000, 6.000000) rotate(45.000000) translate(-6.000000, -6.000000) " x="2" y="2" width="8" height="8"></rect>
                </g>
                <g id="编组-21" transform="translate(189.916332, 0.500000)" stroke="#5365EA">
                    <line x1="0" y1="3" x2="6" y2="3" id="直线-8" stroke-width="1.5" stroke-linecap="square"></line>
                    <polygon id="矩形" fill="#5365EA" transform="translate(3.000000, 3.000000) rotate(45.000000) translate(-3.000000, -3.000000) " points="1.25 1.25 4.75 1.25 4.75 4.75 1.25 4.75"></polygon>
                    <line x1="1.00280713e-15" y1="3" x2="6" y2="3" id="直线-8" stroke-width="1.5" stroke-linecap="square" transform="translate(3.000000, 3.000000) rotate(90.000000) translate(-3.000000, -3.000000) "></line>
                </g>
                <g id="编组-23" transform="translate(24.312697, 51.036408) rotate(-22.000000) translate(-24.312697, -51.036408) translate(4.812697, 36.036408)">
                    <path d="M37.7559324,18.8046834 C37.7559324,21.0814776 35.9650714,22.9271839 33.7559324,22.9271839 L16.125,22.9271839 L9.41846282,29.6876359 C9.26434601,29.8429787 9.06446482,29.9426113 8.8501687,29.9732625 L8.72011203,29.9837737 C8.20731041,29.9891935 7.78020784,29.6080616 7.71670144,29.1114234 L7.70862697,28.9948878 L7.638,22.9271839 L4,22.9271839 C1.790861,22.9271839 5.45696821e-12,21.0814776 5.45696821e-12,18.8046834 L0.374606593,4.12250041 C0.374606593,1.8457063 2.16546759,1.43245416e-11 4.37460659,1.43245416e-11 L34.130539,1.43245416e-11 C36.339678,1.43245416e-11 38.130539,1.8457063 38.130539,4.12250041 C38.130539,10.616142 37.7559324,15.0543583 37.7559324,15.5827816" id="路径" stroke="#0F1358" stroke-linecap="round" stroke-linejoin="round"></path>
                    <g id="编组" transform="translate(12.072816, 3.625393)" fill="#5365EA" fill-rule="nonzero">
                        <g transform="translate(0.571606, 0.984745)" id="形状">
                            <path d="M6.46234605,0 C2.89844539,0 0.000807591346,2.8976378 0.000807591346,6.46073087 C0.000807591346,10.0238239 2.89844539,12.9230769 6.46234605,12.9230769 C10.0246315,12.9230769 12.9222693,10.0230163 12.9222693,6.46073087 C12.9222693,2.89844539 10.0246315,0 6.46234605,0 Z M6.46234605,12.4272158 C3.17706441,12.4272158 0.503129421,9.75005047 0.503129421,6.45992328 C0.503129421,3.17060368 3.17706441,0.495053508 6.46234605,0.495053508 C9.74601252,0.495053508 12.4183323,3.17060368 12.4183323,6.45992328 C12.4183323,9.75005047 9.74601252,12.4272158 6.46234605,12.4272158 Z"></path>
                            <path d="M6.46234605,0.800323037 C3.34504341,0.800323037 0.809206541,3.33939027 0.809206541,6.45992328 C0.809206541,9.58207147 3.34504341,12.1219463 6.46234605,12.1219463 C9.57803352,12.1219463 12.1130628,9.58207147 12.1130628,6.45992328 C12.1130628,3.33939027 9.57803352,0.800323037 6.46234605,0.800323037 Z M4.08802746,5.26953362 L3.47425802,5.26953362 L3.47425802,8.4490208 L2.44054109,8.4490208 L2.44054109,5.26953362 L1.83000202,5.26953362 L1.83000202,4.47486372 L4.08802746,4.47486372 L4.08802746,5.26953362 Z M6.11588937,8.4482132 L4.32465173,8.4482132 L4.32465173,4.47405612 L6.04643651,4.47405612 L6.04643651,5.26872602 L5.35756108,5.26872602 L5.35756108,6.02301635 L6.00201899,6.02301635 L6.00201899,6.77892186 L5.35756108,6.77892186 L5.35756108,7.65273571 L6.11508177,7.65273571 L6.11508177,8.4482132 L6.11588937,8.4482132 Z M8.58873411,8.05814658 C8.52251161,8.19220674 8.39410459,8.30526953 8.20432062,8.39571976 C8.01453666,8.48616999 7.79406421,8.53139511 7.54209571,8.53139511 C7.26509188,8.53139511 7.0284676,8.47890167 6.83303049,8.37391479 C6.6367858,8.26892792 6.50999395,8.13648294 6.44861701,7.97415708 C6.38885525,7.81183122 6.35816678,7.58166768 6.35816678,7.28447406 L6.35816678,7.02442964 L7.3192005,7.02442964 L7.3192005,7.50736928 C7.3192005,7.65677368 7.33212196,7.75206946 7.35958006,7.7948718 C7.38623058,7.83686655 7.43387847,7.85786392 7.50333132,7.85786392 C7.571169,7.85786392 7.62204725,7.83040582 7.65596609,7.7762972 C7.69069252,7.72299617 7.70684434,7.64223703 7.70684434,7.53644257 C7.70684434,7.30143349 7.67454069,7.14879872 7.60993338,7.07692308 C7.54532607,7.00504745 7.3846154,6.88471634 7.12618615,6.71673734 C6.8701797,6.54633557 6.69897032,6.4219665 6.616596,6.34524532 C6.53179891,6.26933173 6.46396124,6.16272968 6.40904502,6.02624674 C6.35412881,5.89057139 6.32667071,5.71774684 6.32667071,5.5061579 C6.32667071,5.20169596 6.3646275,4.97880074 6.44377145,4.83747225 C6.52130022,4.69775895 6.64647688,4.58631134 6.81930143,4.50797498 C6.99212598,4.42802344 7.20290732,4.38845146 7.44679992,4.38845146 C7.71653543,4.38845146 7.9442762,4.4312538 8.13486776,4.51847367 C8.32303654,4.60569354 8.44902079,4.71391078 8.50959014,4.84635576 C8.57177467,4.97799315 8.60165555,5.20169595 8.60165555,5.51746418 L8.60165555,5.67494449 L7.64223702,5.67494449 L7.64223702,5.38017365 C7.64223702,5.24288312 7.63012315,5.15485566 7.60508782,5.11770646 C7.58086008,5.07974967 7.53886533,5.06198266 7.48314153,5.06198266 C7.4201494,5.06198266 7.3733091,5.08701799 7.34100545,5.13708865 C7.30950939,5.18796691 7.29335756,5.26549568 7.29335756,5.36886737 C7.29335756,5.50131235 7.31112457,5.60145368 7.34665859,5.66848376 C7.38138502,5.73551384 7.47829598,5.81708057 7.63819907,5.91237635 C8.09852615,6.18453463 8.38845144,6.40904504 8.50797496,6.58429236 C8.62749848,6.75953968 8.68727433,7.04138907 8.68727433,7.4306481 C8.68806784,7.71572785 8.654149,7.92327882 8.58873411,8.05814658 Z M10.4801131,5.26953362 L10.4801131,8.4490208 L9.44639613,8.4490208 L9.44639613,5.26953362 L8.83504947,5.26953362 L8.83504947,4.47486372 L11.0930749,4.47486372 L11.0930749,5.26953362 L10.4801131,5.26953362 Z"></path>
                        </g>
                    </g>
                </g>
                <path d="M282,167.5 L338,167.5 C337.666667,163.833333 336.166667,162 333.5,162 C329.5,162 327.5,164 326.5,164 C325.5,164 322.5,157 317.5,156 C312.5,155 310.5,159 308.5,159 C306.5,159 307.578188,152.767374 297.5,156 C290.781208,158.155084 285.614541,161.988418 282,167.5 Z" id="直线-9" fill-opacity="0.32" fill="#D9E6F2"></path>
                <g id="审核-(2)" transform="translate(3.677874, 105.270665)" fill="#D9E6F2" fill-rule="nonzero" opacity="0.32">
                    <path d="M19.6733295,21.1037788 L17.2851267,18.6543779 C17.8474467,17.7836365 18.1460101,16.7688795 18.1448502,15.7323502 C18.1448502,12.802212 15.8311175,10.4265438 12.9761866,10.4265438 C10.1219931,10.4265438 7.80752304,12.802212 7.80752304,15.7323502 C7.80752304,18.6624885 10.1219931,21.0374194 12.9761866,21.0374194 C13.9925319,21.0370231 14.9850589,20.7296533 15.8237442,20.155576 L18.2104723,22.6057143 C18.3521073,22.751669 18.5468163,22.8340386 18.7501958,22.8340386 C18.9535754,22.8340386 19.1482844,22.751669 19.2899194,22.6057143 L19.6718548,22.2134562 C19.9692311,21.9036184 19.9692311,21.4143539 19.6718548,21.1045161 L19.6733295,21.1037788 Z M15.7684447,17.0956682 C15.467298,17.7485135 14.9511581,18.2781881 14.3063249,18.596129 C13.8935339,18.8029906 13.4386392,18.9119837 12.976924,18.9146544 C11.2641129,18.9146544 9.87646313,17.4894009 9.87646313,15.7316129 C9.87646313,13.9730876 11.2641129,12.5478341 12.976924,12.5478341 C14.689735,12.5478341 16.0781221,13.9730876 16.0781221,15.7316129 C16.0781221,16.2219355 15.9608871,16.6812903 15.7684447,17.0956682 L15.7684447,17.0956682 Z M6.23480415,16.7247926 L3.7057719,16.7247926 C3.27296085,16.7247926 2.91904379,16.3612903 2.91904377,15.916682 C2.91904377,15.4720737 3.27296083,15.1078341 3.70650922,15.1078341 L6.19130185,15.1078341 C6.25467347,14.3654913 6.43509106,13.6378485 6.72586406,12.9518894 L3.70650922,12.9518894 C3.27296083,12.9518894 2.91904377,12.5883871 2.91904377,12.1437788 C2.91904377,11.6991705 3.27296083,11.3349309 3.70650922,11.3349309 L7.68660138,11.3349309 C8.45794727,10.3587405 9.482446,9.61300132 10.6484447,9.17898618 L3.70650922,9.17898618 C3.27296083,9.17898618 2.91904377,8.81548388 2.91904377,8.37087558 C2.91904377,7.92552996 3.27296083,7.56202766 3.70650922,7.56202766 L15.8303802,7.56202766 C16.2639286,7.56202766 16.6178456,7.92552996 16.6178456,8.37087558 C16.6178456,8.81548388 16.2639286,9.17898618 15.8303802,9.17898618 L15.2368318,9.17898618 C17.3603341,9.96276498 18.9920392,11.803871 19.5295507,14.0836866 L19.5295507,2.46635944 C19.5295507,1.11852533 18.4560023,0.0162212054 17.1428226,0.0162212054 L2.39406683,0.0162212054 C1.08162442,0.0162212054 0.00733870536,1.11852533 0.00733870536,2.46635944 L0.00733870536,19.9587097 C0.00733870536,21.3065438 1.0808871,22.4088479 2.39406683,22.4088479 L11.0443894,22.4088479 C8.52641705,21.6567742 6.61452766,19.4447926 6.23406683,16.7247926 L6.23480415,16.7247926 Z M3.7057719,3.78986174 L15.8296429,3.78986174 C16.2631912,3.78986174 16.6171083,4.15336404 16.6171083,4.59797234 C16.6171083,5.04331797 16.2631912,5.40682027 15.8296429,5.40682027 L3.70650922,5.40682027 C3.27296083,5.40682027 2.91904377,5.04331797 2.91904377,4.59797234 C2.91904377,4.15336404 3.27296083,3.78986174 3.70650922,3.78986174 L3.7057719,3.78986174 Z" id="形状"></path>
                </g>
                <g id="主体" transform="translate(76.000000, 21.000000)">
                    <rect id="形状结合" fill="#5365EA" opacity="0.08" x="72" y="175" width="40" height="8"></rect>
                    <g id="内容" transform="translate(80.000000, 77.000000)">
                        <path d="M6,0 L88,0 C91.3137085,-6.08718376e-16 94,2.6862915 94,6 L94,18 L94,18 L0,18 L0,6 C-1.29399067e-15,2.6862915 2.6862915,-2.79460044e-16 6,0 Z" id="矩形" fill="#E7EFFF"></path>
                        <path d="M0,38.7568205 L0,5.68122335 C0,2.54357033 2.6862915,0 6,0 L88,0 C91.3137085,0 94,2.54357033 94,5.68122335 L94,39" id="路径备份" stroke="#0F1358" stroke-width="1.5"></path>
                    </g>
                    <path d="M10,115.931488 L10,115.931488 L10,107 C10,103.686292 12.6862915,101 16,101 L58,101 C61.3137085,101 64,103.686292 64,107 L64,116.188312 L64,116.188312" id="路径" stroke="#0F1358" stroke-width="1.5"></path>
                    <g id="电脑" transform="translate(0.000000, 16.000000)">
                        <path d="M6,0 L177,0 C180.313708,-6.08718376e-16 183,2.6862915 183,6 L183,52 L183,52 L0,52 L0,6 C-4.05812251e-16,2.6862915 2.6862915,6.08718376e-16 6,0 Z" id="矩形" fill="#E7EFFF"></path>
                        <path d="M7,119 L175,119 C178.313708,119 181,121.686292 181,125 L181,139 L181,139 L1,139 L1,125 C1,121.686292 3.6862915,119 7,119 Z" id="矩形备份" fill="#5365EA" opacity="0.08" transform="translate(91.000000, 129.000000) scale(1, -1) translate(-91.000000, -129.000000) "></path>
                        <path d="M6,99 L177,99 C180.313708,99 183,101.686292 183,105 L183,122 L183,122 L0,122 L0,105 C-4.05812251e-16,101.686292 2.6862915,99 6,99 Z" id="矩形备份" fill="#E7EFFF" transform="translate(91.500000, 110.500000) scale(1, -1) translate(-91.500000, -110.500000) "></path>
                        <path d="M183,106.767099 C183,109.707744 183,114.118711 183,120 C183,123.313708 180.313708,126 177,126 L6,126 C2.6862915,126 0,123.313708 0,120 L0,6 C0,2.6862915 2.6862915,0 6,0 L112.319119,0 L177,0 C180.313708,0 183,2.6862915 183,6 C183,55.121246 183,85.9149642 183,100.77223" id="路径" stroke="#0F1358" stroke-width="1.5" fill="#FFFFFF" stroke-linecap="round" stroke-linejoin="round"></path>
                        <path d="M82,140.080649 C82,145.006671 86.4771525,149 92,149 C97.5228475,149 102,145.006671 102,140.080649 L102,140.080649 L102,126 L112,126 L112,160 L72,160 L72,126 L82,126 Z" id="形状结合" stroke="#0F1358" stroke-width="1.5" fill="#FFFFFF"></path>
                        <rect id="矩形备份-3" stroke="#0F1358" fill="#0F1358" x="59.5" y="159.5" width="65" height="1" rx="0.5"></rect>
                        <rect id="矩形备份-2" fill="#0F1358" x="0" y="106" width="183" height="1.5"></rect>
                    </g>
                    <path d="M132.000234,9.99992187 C131.600234,9.99992187 131.200547,9.84742187 130.895234,9.54210937 L127.457734,6.10460937 C126.847422,5.49460937 126.847422,4.50523437 127.457734,3.89523437 L130.895234,0.457734375 C131.505547,-0.152578125 132.494609,-0.152578125 133.104922,0.457734375 L136.542422,3.89523437 C137.152734,4.50523437 137.152734,5.49460937 136.542422,6.10460937 L133.104922,9.54210937 C132.799922,9.84742187 132.400234,9.99992187 132.000234,9.99992187 Z M130.772422,4.99992187 L132.000234,6.22773437 L133.228047,4.99992187 L132.000234,3.77210937 L130.772422,4.99992187 Z" id="形状" fill="#5365EA" fill-rule="nonzero"></path>
                    <g id="电脑阴影" transform="translate(59.000000, 183.000000)" fill="#5365EA" opacity="0.08">
                        <rect id="矩形备份-3" x="0" y="0" width="66" height="2" rx="1"></rect>
                    </g>
                    <rect id="矩形" fill="#0F1358" x="0" y="36" width="183" height="1.5"></rect>
                    <g id="编组-4" transform="translate(126.000000, 90.000000)" fill="#E7EFFF">
                        <rect id="矩形备份-25" x="0" y="0" width="32" height="2" rx="1"></rect>
                        <rect id="矩形备份-26" x="6" y="6" width="20" height="2" rx="1"></rect>
                        <rect id="矩形备份-27" x="0" y="12" width="32" height="2" rx="1"></rect>
                    </g>
                    <g id="编组-4备份" transform="translate(76.000000, 90.000000)" fill="#E7EFFF">
                        <rect id="矩形备份-25" x="0" y="0" width="32" height="2" rx="1"></rect>
                        <rect id="矩形备份-26" x="6" y="6" width="20" height="2" rx="1"></rect>
                        <rect id="矩形备份-27" x="0" y="12" width="32" height="2" rx="1"></rect>
                    </g>
                    <g id="编组-4备份-2" transform="translate(26.000000, 90.000000)" fill="#E7EFFF">
                        <rect id="矩形备份-25" x="0" y="0" width="32" height="2" rx="1"></rect>
                        <rect id="矩形备份-26" x="6" y="6" width="20" height="2" rx="1"></rect>
                        <rect id="矩形备份-27" x="0" y="12" width="32" height="2" rx="1"></rect>
                    </g>
                    <path d="M182.231556,95.0517378 C181.658765,95.0174102 181.081416,95 180.5,95 C164.759885,95 152,107.759885 152,123.5 C152,130.250554 154.346982,136.45294 158.269477,141.335692 C163.492977,147.837943 171.510438,152 180.5,152" id="路径" fill="#5365EA" opacity="0.2"></path>
                    <circle id="椭圆形" stroke="#0F1358" stroke-width="1.5" fill="#FFFFFF" cx="184" cy="126" r="27"></circle>
                    <g id="编组-3" transform="translate(163.585786, 116.448451)" stroke="#5365EA" stroke-linecap="round" stroke-linejoin="round" stroke-width="3">
                        <path d="M15.8139535,16.3270221 L4.2377261,16.3270221 C3.43855437,16.3270221 2.79069767,15.6791654 2.79069767,14.8799937 L2.79069767,3.3037663" id="路径" transform="translate(9.302326, 9.815394) rotate(-315.000000) translate(-9.302326, -9.815394) "></path>
                        <path d="M37.2093023,16.3270221 L25.6330749,16.3270221 C24.8339032,16.3270221 24.1860465,15.6791654 24.1860465,14.8799937 L24.1860465,3.3037663" id="路径" transform="translate(30.697674, 9.815394) scale(-1, 1) rotate(-315.000000) translate(-30.697674, -9.815394) "></path>
                        <line x1="13.994375" y1="18.5683367" x2="23.853338" y2="2.79069767" id="路径"></line>
                    </g>
                    <g id="编组-5" transform="translate(26.000000, 54.000000)" fill="#5365EA" fill-rule="nonzero">
                        <path d="M11.3018533,3.68909804 L9.5299367,0.628941176 C9.30412461,0.238980392 8.89707958,0 8.45795422,0 L1.2498824,0 C0.559530689,0 0,0.579333333 0,1.29411765 L0,22 L31,22 L31,5.61172549 C31,4.89694118 30.4404693,4.31760784 29.7501176,4.31760784 L12.3738358,4.31760784 C11.9342938,4.31760784 11.5276654,4.07905882 11.3018533,3.68909804 L11.3018533,3.68909804 Z" id="路径"></path>
                        <path d="M29.7501176,28 L1.2498824,28 C0.559530689,28 0,27.4329556 0,26.7333333 L0,10.2666667 C0,9.56704444 0.559530689,9 1.2498824,9 L29.7501176,9 C30.4404693,9 31,9.56704444 31,10.2666667 L31,26.7333333 C31,27.4329556 30.4404693,28 29.7501176,28 Z" id="路径"></path>
                    </g>
                    <g id="编组-5备份" transform="translate(126.000000, 54.000000)" fill="#5365EA" fill-rule="nonzero">
                        <path d="M11.3018533,3.68909804 L9.5299367,0.628941176 C9.30412461,0.238980392 8.89707958,0 8.45795422,0 L1.2498824,0 C0.559530689,0 0,0.579333333 0,1.29411765 L0,22 L31,22 L31,5.61172549 C31,4.89694118 30.4404693,4.31760784 29.7501176,4.31760784 L12.3738358,4.31760784 C11.9342938,4.31760784 11.5276654,4.07905882 11.3018533,3.68909804 L11.3018533,3.68909804 Z" id="路径"></path>
                        <path d="M29.7501176,28 L1.2498824,28 C0.559530689,28 0,27.4329556 0,26.7333333 L0,10.2666667 C0,9.56704444 0.559530689,9 1.2498824,9 L29.7501176,9 C30.4404693,9 31,9.56704444 31,10.2666667 L31,26.7333333 C31,27.4329556 30.4404693,28 29.7501176,28 Z" id="路径"></path>
                    </g>
                    <g id="编组-5备份-2" transform="translate(76.000000, 54.000000)" fill="#5365EA" fill-rule="nonzero">
                        <path d="M11.3018533,3.68909804 L9.5299367,0.628941176 C9.30412461,0.238980392 8.89707958,0 8.45795422,0 L1.2498824,0 C0.559530689,0 0,0.579333333 0,1.29411765 L0,22 L31,22 L31,5.61172549 C31,4.89694118 30.4404693,4.31760784 29.7501176,4.31760784 L12.3738358,4.31760784 C11.9342938,4.31760784 11.5276654,4.07905882 11.3018533,3.68909804 L11.3018533,3.68909804 Z" id="路径"></path>
                        <path d="M29.7501176,28 L1.2498824,28 C0.559530689,28 0,27.4329556 0,26.7333333 L0,10.2666667 C0,9.56704444 0.559530689,9 1.2498824,9 L29.7501176,9 C30.4404693,9 31,9.56704444 31,10.2666667 L31,26.7333333 C31,27.4329556 30.4404693,28 29.7501176,28 Z" id="路径"></path>
                    </g>
                    <circle id="椭圆形" fill="#5365EA" cx="12" cy="27" r="2"></circle>
                    <circle id="椭圆形备份" fill="#5365EA" cx="20" cy="27" r="2"></circle>
                    <circle id="椭圆形备份-2" fill="#5365EA" cx="28" cy="27" r="2"></circle>
                </g>
                <g id="编组-26" transform="translate(314.013368, 78.453394) rotate(6.000000) translate(-314.013368, -78.453394) translate(294.513368, 62.953394)" stroke-linecap="round">
                    <path d="M15.8667906,5.45696821e-12 C19.1795501,5.45696821e-12 25.5572865,5.45696821e-12 35,5.45696821e-12 C37.209139,5.45696821e-12 39,1.790861 39,4 L39,21 C39,23.209139 37.209139,25 35,25 L31.185,25 L31.185076,29.803352 C31.185076,29.9721147 31.1423802,30.1374193 31.0618741,30.2842129 L30.9944814,30.3906022 C30.6951005,30.8034798 30.1392678,30.9197283 29.7039314,30.6801145 L29.5978258,30.6127575 L21.862,25 L4,25 C1.790861,25 -1.09139364e-11,23.209139 -1.09139364e-11,21 L-1.09139364e-11,4 C-1.09139364e-11,1.790861 1.790861,5.45696821e-12 4,5.45696821e-12 C7.0176234,5.45696821e-12 9.28084095,5.45696821e-12 10.7896526,5.45696821e-12" id="路径" stroke="#0F1358" fill="#FFFFFF" stroke-linejoin="round"></path>
                    <polyline id="直线-6" stroke="#5365EA" stroke-width="3" points="12.058716 13.4989124 16.858716 18.3637773 28.058716 6.36377728"></polyline>
                </g>
                <g id="编组" transform="translate(291.000000, 113.000000)" fill="#D9E6F2" fill-rule="nonzero" opacity="0.32">
                    <path d="M17.5379678,5.55592204 L3.37096483,5.55592204 C3.15428328,5.55592204 2.95458981,5.67325253 2.84913372,5.86254044 L0.0755418876,10.8411387 C0.0260103684,10.9300271 0,11.0300954 0,11.1318525 L0,17.1447825 C0,17.4747372 0.26743869,17.7421351 0.597332155,17.7421351 L20.3093955,17.7421351 C20.639289,17.7421351 20.9067277,17.4746964 20.9067277,17.1448029 L20.9067277,11.13173 C20.9067277,11.0300547 20.880778,10.9300536 20.8313083,10.8412 L18.0598806,5.86272419 C17.9544582,5.67333984 17.7547173,5.55592204 17.5379678,5.55592204 Z M13.1097841,11.0372822 C13.1097841,12.5031623 11.9213877,13.691722 10.4533434,13.691722 C8.98529914,13.691722 7.79692317,12.5031623 7.79692317,11.0372822 L1.2466453,11.0372822 L3.66541486,6.42287749 L17.2389445,6.42287749 L19.657714,11.0372618 L13.1097841,11.0372618 L13.1097841,11.0372822 Z M10.6665757,0 C10.918171,0 11.1221341,0.2039631 11.1221341,0.455558409 L11.1221341,2.8211424 C11.1221341,3.07273771 10.918171,3.27668039 10.6665757,3.27668039 C10.4149804,3.27668039 10.2110173,3.07271729 10.2110173,2.8211424 L10.2110173,0.455558409 C10.2110173,0.2039631 10.4149804,0 10.6665757,0 Z M4.35002852,1.30458798 C4.52789903,1.12667662 4.81632613,1.12665621 4.99421708,1.30454714 L4.9942579,1.30458798 L6.66669403,2.97720786 C6.84460539,3.15513962 6.84460539,3.44360754 6.66669403,3.62153931 C6.4888031,3.79945066 6.20037601,3.79945066 6.02246465,3.62158015 L6.02242383,3.62153931 L4.35000811,1.94889902 C4.17211718,1.77096725 4.17211718,1.48251974 4.35000811,1.30458798 L4.35002852,1.30458798 Z M14.3860745,2.97869828 L16.0584902,1.30605798 C16.2363811,1.12814662 16.5248082,1.12814662 16.7027196,1.30601714 L16.7027604,1.30605798 C16.8806718,1.48398974 16.8806718,1.77245766 16.7027604,1.95040986 L15.0303447,3.62300932 C14.8524742,3.80092068 14.5640267,3.80094109 14.3861357,3.62305016 L14.3860949,3.62300932 C14.2081835,3.44507756 14.2081835,3.15663005 14.3860949,2.97869828 L14.3860745,2.97869828 Z" id="形状"></path>
                </g>
                <path d="M41,188 L45,188 L45,176 L41,176 L41,188 Z M63,177 C63,175.9 62.1,175 61,175 L54.69,175 L55.64,170.43 L55.67,170.11 C55.67,169.7 55.5,169.32 55.23,169.05 L54.17,168 L47.59,174.59 C47.22,174.95 47,175.45 47,176 L47,186 C47,187.1 47.9,188 49,188 L58,188 C58.83,188 59.54,187.5 59.84,186.78 L62.86,179.73 C62.95,179.5 63,179.26 63,179 L63,177 Z" id="形状" fill-opacity="0.32" fill="#D9E6F2" fill-rule="nonzero"></path>
                <path d="M301,15.7289338 L331,15.7289338 C330.821429,13.7646481 330.017857,12.7825052 328.589286,12.7825052 C326.446429,12.7825052 325.375,13.8539338 324.839286,13.8539338 C324.303571,13.8539338 322.696429,10.1039338 320.017857,9.56821948 C317.339286,9.0325052 316.267857,11.1753623 315.196429,11.1753623 C314.125,11.1753623 314.702601,7.83645531 309.303571,9.56821948 C305.704218,10.7227289 302.936361,12.7763004 301,15.7289338 Z" id="直线-9" fill-opacity="0.32" fill="#D9E6F2"></path>
                <path d="M40.6785153,19.4625618 L91.0530826,19.4625618 C89.0831498,17.1541873 86.8987889,16 84.5,16 C80.9018166,16 77.3995458,18 76.5,18 C75.6004542,18 74.9977292,14 70.5,13 C66.0022708,12 64.2990917,15 62.5,15 C60.7009083,15 57.5657925,6.76737355 48.5,10 C42.4561384,12.1550843 39.8489768,15.3092716 40.6785153,19.4625618 Z" id="直线-9" fill-opacity="0.32" fill="#D9E6F2"></path>
            </g>
        </g>
    </g>
</svg>
