<?xml version="1.0" encoding="UTF-8"?>
<svg width="30px" height="30px" viewBox="0 0 30 30" version="1.1" xmlns="http://www.w3.org/2000/svg" xmlns:xlink="http://www.w3.org/1999/xlink">
    <!-- Generator: Sketch 63.1 (92452) - https://sketch.com -->
    <title>analytics</title>
    <desc>Created with Sketch.</desc>
    <g id="测试-计划" stroke="none" stroke-width="1" fill="none" fill-rule="evenodd">
        <g id="测试-测试报告-MVP" transform="translate(-357.000000, -343.000000)" fill-rule="nonzero">
            <g id="测试执行" transform="translate(357.000000, 339.000000)">
                <g id="analytics" transform="translate(0.000000, 4.000000)">
                    <path d="M4.8046875,25.2958594 L2.9296875,25.2958594 C1.63529297,25.2958594 0.5859375,24.2465039 0.5859375,22.9521094 L0.5859375,2.9296875 C0.5859375,1.63529297 1.63529297,0.5859375 2.9296875,0.5859375 L27.0703125,0.5859375 C28.364707,0.5859375 29.4140625,1.63529297 29.4140625,2.9296875 L29.4140625,22.9521094 C29.4140625,24.2465039 28.364707,25.2958594 27.0703125,25.2958594 L24.6679688,25.2958594 L4.8046875,25.2958594 Z" id="路径" fill="#FFFFFF"></path>
                    <path d="M27.0703125,0.5859375 L2.9296875,0.5859375 C1.63529297,0.5859375 0.5859375,1.63529297 0.5859375,2.9296875 L0.5859375,4.8046875 L29.4140625,4.8046875 L29.4140625,2.9296875 C29.4140625,1.63529297 28.364707,0.5859375 27.0703125,0.5859375 Z" id="路径" fill="#FF5A5A"></path>
                    <line x1="1.23070313" y1="4.82539062" x2="29.0625" y2="4.82539062" id="路径" fill="#231F20"></line>
                    <rect id="矩形" fill="#A5DC69" x="3.28125" y="22.96875" width="3.75" height="6.4453125"></rect>
                    <rect id="矩形" fill="#789EFA" x="16.40625" y="21.4453125" width="3.75" height="7.96875"></rect>
                    <rect id="矩形" fill="#F5C86E" x="9.84375" y="16.4900391" width="3.75" height="12.9240234"></rect>
                    <rect id="矩形" fill="#FF5A5A" x="22.96875" y="15.6152344" width="3.75" height="13.7988281"></rect>
                    <circle id="椭圆形" fill="#F5C86E" cx="11.3888672" cy="10.0746094" r="1.5234375"></circle>
                    <circle id="椭圆形" fill="#789EFA" cx="18.2267578" cy="17.0507812" r="1.5234375"></circle>
                    <circle id="椭圆形" fill="#FF5A5A" cx="24.84375" cy="10.0746094" r="1.5234375"></circle>
                    <circle id="椭圆形" fill="#A5DC69" cx="5.11757812" cy="16.4900391" r="1.5234375"></circle>
                    <path d="M27.954082,25.8106641 C29.0821875,25.8106641 30,24.8928516 30,23.7646875 L30,2.9296875 C30,1.31425781 28.6857422,0 27.0703125,0 L2.9296875,0 C1.31425781,0 0,1.31425781 0,2.9296875 L0,23.7646875 C0,24.8928516 0.9178125,25.8106641 2.04591797,25.8106641 L2.6953125,25.8106641 L2.6953125,28.828125 L0.5859375,28.828125 C0.262324219,28.828125 0,29.0905078 0,29.4140625 C0,29.7376172 0.262324219,30 0.5859375,30 L29.4140625,30 C29.7376758,30 30,29.7376172 30,29.4140625 C30,29.0905078 29.7376758,28.828125 29.4140625,28.828125 L27.3046875,28.828125 L27.3046875,25.8106641 L27.954082,25.8106641 Z M2.9296875,1.171875 L27.0703125,1.171875 C28.0395703,1.171875 28.828125,1.96042969 28.828125,2.9296875 L28.828125,4.21875 L1.23070313,4.21875 C1.21083984,4.21875 1.19121094,4.21980469 1.171875,4.22173828 L1.171875,2.9296875 C1.171875,1.96042969 1.96042969,1.171875 2.9296875,1.171875 Z M3.8671875,28.828125 L3.8671875,23.5546875 L6.4453125,23.5546875 L6.4453125,28.828125 L3.8671875,28.828125 Z M10.4296875,28.828125 L10.4296875,17.0760937 L13.0078125,17.0760937 L13.0078125,28.828125 L10.4296875,28.828125 Z M16.9921875,28.828125 L16.9921875,22.03125 L19.5703125,22.03125 L19.5703125,28.828125 L16.9921875,28.828125 Z M23.5546875,28.828125 L23.5546875,22.5146484 C23.5546875,22.1910938 23.2923633,21.9287109 22.96875,21.9287109 C22.6451367,21.9287109 22.3828125,22.1910938 22.3828125,22.5146484 L22.3828125,28.828125 L20.7421875,28.828125 L20.7421875,21.4453125 C20.7421875,21.1217578 20.4798633,20.859375 20.15625,20.859375 L16.40625,20.859375 C16.0826367,20.859375 15.8203125,21.1217578 15.8203125,21.4453125 L15.8203125,28.828125 L14.1796875,28.828125 L14.1796875,16.4901563 C14.1796875,16.1666016 13.9173633,15.9042188 13.59375,15.9042188 L9.84375,15.9042188 C9.52013672,15.9042188 9.2578125,16.1666016 9.2578125,16.4901563 L9.2578125,28.828125 L7.6171875,28.828125 L7.6171875,22.96875 C7.6171875,22.6451953 7.35486328,22.3828125 7.03125,22.3828125 L3.28125,22.3828125 C2.95763672,22.3828125 2.6953125,22.6451953 2.6953125,22.96875 L2.6953125,24.6387891 L2.04591797,24.6387891 C1.56392578,24.6387891 1.171875,24.2466797 1.171875,23.7646875 L1.171875,5.38763672 C1.19121094,5.38957031 1.21083984,5.390625 1.23070313,5.390625 L28.828125,5.390625 L28.828125,23.7646875 C28.828125,24.2466797 28.4360156,24.6387891 27.954082,24.6387891 L27.3046875,24.6387891 L27.3046875,15.6152344 C27.3046875,15.2916797 27.0423633,15.0292969 26.71875,15.0292969 L22.96875,15.0292969 C22.6451367,15.0292969 22.3828125,15.2916797 22.3828125,15.6152344 L22.3828125,18.5741602 C22.3828125,18.8977148 22.6451367,19.1600977 22.96875,19.1600977 C23.2923633,19.1600977 23.5546875,18.8977148 23.5546875,18.5741602 L23.5546875,16.2011719 L26.1328125,16.2011719 L26.1328125,28.828125 L23.5546875,28.828125 Z" id="形状" fill="#000000"></path>
                    <path d="M13.0116211,3.28125 L26.25,3.28125 C26.5736133,3.28125 26.8359375,3.01886719 26.8359375,2.6953125 C26.8359375,2.37175781 26.5736133,2.109375 26.25,2.109375 L13.0116211,2.109375 C12.6880078,2.109375 12.4256836,2.37175781 12.4256836,2.6953125 C12.4256836,3.01886719 12.6880078,3.28125 13.0116211,3.28125 Z" id="路径" fill="#000000"></path>
                    <path d="M6.09375,3.28125 C6.24785156,3.28125 6.39902344,3.21855469 6.50800781,3.10951172 C6.61699219,3.00058594 6.6796875,2.84941406 6.6796875,2.6953125 C6.6796875,2.54121094 6.61699219,2.39003906 6.50800781,2.28105469 C6.39902344,2.17207031 6.24785156,2.109375 6.09375,2.109375 C5.93964844,2.109375 5.78847656,2.17201172 5.67949219,2.28105469 C5.57050781,2.39003906 5.5078125,2.54121094 5.5078125,2.6953125 C5.5078125,2.84941406 5.57050781,3.00058594 5.67949219,3.10951172 C5.78847656,3.21855469 5.93964844,3.28125 6.09375,3.28125 Z" id="路径" fill="#000000"></path>
                    <path d="M3.75,3.28125 C3.90410156,3.28125 4.05527344,3.21855469 4.16425781,3.10951172 C4.27324219,3.00058594 4.3359375,2.84941406 4.3359375,2.6953125 C4.3359375,2.54121094 4.27324219,2.39003906 4.16425781,2.28105469 C4.05527344,2.17207031 3.90410156,2.109375 3.75,2.109375 C3.59589844,2.109375 3.44472656,2.17201172 3.33574219,2.28105469 C3.22675781,2.39003906 3.1640625,2.54121094 3.1640625,2.6953125 C3.1640625,2.84941406 3.22675781,3.00058594 3.33574219,3.10951172 C3.44472656,3.21855469 3.59589844,3.28125 3.75,3.28125 Z" id="路径" fill="#000000"></path>
                    <path d="M8.4375,3.28125 C8.59160156,3.28125 8.74277344,3.21855469 8.85175781,3.10951172 C8.96074219,3.00058594 9.0234375,2.84941406 9.0234375,2.6953125 C9.0234375,2.54121094 8.96074219,2.39003906 8.85175781,2.28105469 C8.74277344,2.17207031 8.5921875,2.109375 8.4375,2.109375 C8.28339844,2.109375 8.13222656,2.17201172 8.02324219,2.28105469 C7.91425781,2.39003906 7.8515625,2.54121094 7.8515625,2.6953125 C7.8515625,2.84941406 7.91425781,3.00058594 8.02324219,3.10951172 C8.13222656,3.21855469 8.28339844,3.28125 8.4375,3.28125 Z" id="路径" fill="#000000"></path>
                    <path d="M22.96875,20.0765625 C22.8146484,20.0765625 22.6634766,20.1387305 22.5544922,20.2482422 C22.4455078,20.3572266 22.3828125,20.5083984 22.3828125,20.6625 C22.3828125,20.8166016 22.4455078,20.9677734 22.5544922,21.0767578 C22.6634766,21.1856836 22.8146484,21.2484375 22.96875,21.2484375 C23.1228516,21.2484375 23.2740234,21.1857422 23.3830078,21.0767578 C23.4919922,20.9677734 23.5546875,20.8166016 23.5546875,20.6625 C23.5546875,20.5078125 23.4919922,20.3572266 23.3830078,20.2482422 C23.2740234,20.1386719 23.1228516,20.0765625 22.96875,20.0765625 Z" id="路径" fill="#000000"></path>
                    <path d="M24.84375,12.1839258 C26.0068945,12.1839258 26.953125,11.2376953 26.953125,10.0745508 C26.953125,8.91140625 26.0068945,7.96517578 24.84375,7.96517578 C23.6806055,7.96517578 22.734375,8.91140625 22.734375,10.0745508 C22.734375,10.5365625 22.884082,10.9640625 23.1369727,11.3119336 L19.2448828,15.2040234 C18.942832,15.0368555 18.5958398,14.9413477 18.2268164,14.9413477 C17.8942969,14.9413477 17.5796484,15.0189844 17.2996289,15.1566211 L13.235625,11.0926172 C13.402793,10.7905664 13.4983008,10.4435742 13.4983008,10.0745508 C13.4983008,8.91140625 12.5520703,7.96517578 11.3889258,7.96517578 C10.2257813,7.96517578 9.27955078,8.91140625 9.27955078,10.0745508 C9.27955078,10.4810742 9.39544922,10.8608789 9.59548828,11.1832617 L6.13535156,14.6433398 C5.83330078,14.4761719 5.48630859,14.3806641 5.11734375,14.3806641 C3.95419922,14.3806641 3.00796875,15.3268945 3.00796875,16.4900391 C3.00796875,17.6531836 3.95419922,18.5994141 5.11734375,18.5994141 C6.28048828,18.5994141 7.22671875,17.6531836 7.22671875,16.4900391 C7.22671875,16.1210156 7.13121094,15.7740234 6.96404297,15.4719727 L10.4654883,11.9705273 C10.7445703,12.1069922 11.0579297,12.1838672 11.3889258,12.1838672 C11.7578906,12.1838672 12.1048828,12.0883594 12.4069336,11.9211914 L16.4311523,15.9453516 C16.2324609,16.2670312 16.1174414,16.6455469 16.1174414,17.0506055 C16.1174414,18.21375 17.0636719,19.1599805 18.2268164,19.1599805 C19.3899609,19.1599805 20.3361914,18.21375 20.3361914,17.0506055 C20.3361914,16.681582 20.2406836,16.3345898 20.0735156,16.0325391 L24.0699023,12.0361523 C24.3097266,12.1311914 24.5706445,12.1839258 24.84375,12.1839258 Z M24.84375,9.13705078 C25.3606641,9.13705078 25.78125,9.55763672 25.78125,10.0745508 C25.78125,10.5914648 25.3606641,11.0120508 24.84375,11.0120508 C24.3268359,11.0120508 23.90625,10.5914648 23.90625,10.0745508 C23.90625,9.55763672 24.3268359,9.13705078 24.84375,9.13705078 Z M5.11740234,17.4276562 C4.60048828,17.4276562 4.17990234,17.0070703 4.17990234,16.4901562 C4.17990234,15.9732422 4.60048828,15.5526562 5.11740234,15.5526562 C5.63431641,15.5526562 6.05490234,15.9732422 6.05490234,16.4901562 C6.05490234,17.0070703 5.63431641,17.4276562 5.11740234,17.4276562 Z M11.3889844,11.0120508 C10.8720703,11.0120508 10.4514844,10.5914648 10.4514844,10.0745508 C10.4514844,9.55763672 10.8720703,9.13705078 11.3889844,9.13705078 C11.9058984,9.13705078 12.3264844,9.55763672 12.3264844,10.0745508 C12.3264844,10.5914648 11.9058984,11.0120508 11.3889844,11.0120508 Z M18.226875,17.9882227 C17.7099609,17.9882227 17.289375,17.5676367 17.289375,17.0507227 C17.289375,16.5338086 17.7099609,16.1132227 18.226875,16.1132227 C18.7437891,16.1132227 19.164375,16.5338086 19.164375,17.0507227 C19.164375,17.5676367 18.7437891,17.9882227 18.226875,17.9882227 Z" id="形状" fill="#000000"></path>
                    <path d="M8.27695312,8.55585937 C8.43105469,8.55585937 8.58164062,8.49322266 8.69121094,8.38417969 C8.80019531,8.27519531 8.86289062,8.12402344 8.86289062,7.96992187 C8.86289062,7.81582031 8.80019531,7.66464844 8.69121094,7.55572266 C8.58164062,7.44673828 8.43105469,7.38398438 8.27695312,7.38398438 C8.12226562,7.38398438 7.97109375,7.44667969 7.86210937,7.55572266 C7.753125,7.66464844 7.69101562,7.81582031 7.69101562,7.96992187 C7.69101562,8.12402344 7.753125,8.27519531 7.86210937,8.38417969 C7.97167969,8.49316406 8.12226562,8.55585937 8.27695312,8.55585937 Z" id="路径" fill="#000000"></path>
                    <path d="M3.28125,8.55591797 L6.09375,8.55591797 C6.41736328,8.55591797 6.6796875,8.29353516 6.6796875,7.96998047 C6.6796875,7.64642578 6.41736328,7.38404297 6.09375,7.38404297 L3.28125,7.38404297 C2.95763672,7.38404297 2.6953125,7.64642578 2.6953125,7.96998047 C2.6953125,8.29353516 2.95763672,8.55591797 3.28125,8.55591797 Z" id="路径" fill="#000000"></path>
                    <path d="M6.09375,11.368418 C6.41736328,11.368418 6.6796875,11.1060352 6.6796875,10.7824805 C6.6796875,10.4589258 6.41736328,10.196543 6.09375,10.196543 L3.28125,10.196543 C2.95763672,10.196543 2.6953125,10.4589258 2.6953125,10.7824805 C2.6953125,11.1060352 2.95763672,11.368418 3.28125,11.368418 L6.09375,11.368418 Z" id="路径" fill="#000000"></path>
                </g>
            </g>
        </g>
    </g>
</svg>