<?xml version="1.0" encoding="UTF-8"?>
<svg width="30px" height="30px" viewBox="0 0 30 30" version="1.1" xmlns="http://www.w3.org/2000/svg" xmlns:xlink="http://www.w3.org/1999/xlink">
    <!-- Generator: Sketch 63.1 (92452) - https://sketch.com -->
    <title>bug</title>
    <desc>Created with Sketch.</desc>
    <g id="测试-计划" stroke="none" stroke-width="1" fill="none" fill-rule="evenodd">
        <g id="测试-测试报告-MVP" transform="translate(-323.000000, -468.000000)" fill-rule="nonzero">
            <g id="产生缺陷" transform="translate(323.000000, 464.000000)">
                <g id="bug" transform="translate(0.000000, 4.000000)">
                    <path d="M4.8046875,27.070957 L2.9296875,27.070957 C1.63529297,27.070957 0.5859375,26.0216016 0.5859375,24.727207 L0.5859375,2.93009766 C0.5859375,1.63570313 1.63529297,0.586347656 2.9296875,0.586347656 L27.0703125,0.586347656 C28.364707,0.586347656 29.4140625,1.63570313 29.4140625,2.93009766 L29.4140625,24.727207 C29.4140625,26.0216016 28.364707,27.070957 27.0703125,27.070957 L24.6679688,27.070957 L4.8046875,27.070957 Z" id="路径" fill="#FFFFFF"></path>
                    <path d="M27.0703125,0.586347656 L2.9296875,0.586347656 C1.63529297,0.586347656 0.5859375,1.63570312 0.5859375,2.93009766 L0.5859375,4.80509766 L29.4140625,4.80509766 L29.4140625,2.93009766 C29.4140625,1.63564453 28.364707,0.586347656 27.0703125,0.586347656 Z" id="路径" fill="#9DBFFF"></path>
                    <line x1="1.23070313" y1="4.82580078" x2="29.0625" y2="4.82580078" id="路径" fill="#231F20"></line>
                    <circle id="椭圆形" fill="#AAC9FF" cx="14.8488281" cy="14.8488281" r="7.65117188"></circle>
                    <path d="M28.8393164,28.8399609 L28.8393164,28.8399609 C28.0727344,29.606543 26.8299023,29.606543 26.0633789,28.8399609 L20.2841602,23.0607422 L23.0600977,20.2848047 L28.8393164,26.0640234 C29.6058984,26.8305469 29.6058984,28.0733789 28.8393164,28.8399609 Z" id="路径" fill="#F5B955"></path>
                    <path d="M14.9298633,19.0020117 L14.7873633,19.0020117 C13.1850586,19.0020117 11.8860938,17.7031055 11.8860938,16.1007422 L11.8860938,15.3057422 C11.8860938,13.7034375 13.185,12.4044727 14.7873633,12.4044727 L14.9298633,12.4044727 C16.532168,12.4044727 17.8311328,13.7033789 17.8311328,15.3057422 L17.8311328,16.1007422 C17.8311328,17.7030469 16.532168,19.0020117 14.9298633,19.0020117 Z" id="路径" fill="#FF5A5A"></path>
                    <path d="M15.9650977,12.4044727 L13.7520117,12.4044727 L13.7520117,11.8088672 C13.7520117,11.2445508 14.2095117,10.7870508 14.7738281,10.7870508 L14.9432812,10.7870508 C15.5075977,10.7870508 15.9650977,11.2445508 15.9650977,11.8088672 L15.9650977,12.4044727 Z" id="路径" fill="#4B7FF5"></path>
                    <path d="M29.4140625,24.0231445 C29.7376758,24.0231445 30,23.7608203 30,23.437207 L30,2.93009766 C30,1.31466797 28.6857422,0.00041015625 27.0703125,0.00041015625 L2.9296875,0.00041015625 C1.31425781,0.00041015625 0,1.31466797 0,2.93009766 L0,24.727207 C0,26.3426367 1.31425781,27.6568945 2.9296875,27.6568945 L24.0516797,27.6568945 L25.6490625,29.2542773 C26.1459375,29.7511523 26.7986719,29.9995898 27.4513477,29.9995898 C28.1040234,29.9995898 28.7567578,29.7511523 29.2536328,29.2542773 C30.2473828,28.2604687 30.2473828,26.643457 29.2536328,25.6496484 L23.4744141,19.8704297 C23.3645508,19.7605664 23.2154883,19.6988086 23.0600977,19.6988086 C22.904707,19.6988086 22.7556445,19.7605664 22.6457812,19.8704297 L21.6722461,20.8439648 L21.0701953,20.2419141 C22.325332,18.7958789 23.0859375,16.9096289 23.0859375,14.8490039 C23.0859375,13.0576758 22.5207422,11.3542969 21.4514062,9.92314453 C20.4179297,8.53992187 18.9454687,7.49625 17.3052539,6.98443359 C16.9964062,6.88804687 16.6677539,7.0603125 16.5713672,7.36921875 C16.4749219,7.678125 16.6472461,8.00671875 16.9561523,8.10310547 C19.9216406,9.02847656 21.9140625,11.7394922 21.9140625,14.8490039 C21.9140625,18.7449023 18.7444922,21.9144141 14.8486523,21.9144141 C10.9528125,21.9144141 7.78324219,18.7448437 7.78324219,14.8490039 C7.78324219,11.7665039 9.75333984,9.06257812 12.6854883,8.12068359 C12.9935742,8.02171875 13.1631445,7.69171875 13.0641797,7.38357422 C12.9652148,7.07542969 12.6350977,6.90609375 12.3271289,7.00494141 C10.6793555,7.53427734 9.26121094,8.55257812 8.22603516,9.94986328 C7.16970703,11.3755664 6.61136719,13.0696875 6.61136719,14.8490039 C6.61136719,19.3910742 10.306582,23.0862891 14.8486523,23.0862891 C16.9092773,23.0862891 18.7955273,22.3256836 20.2415625,21.0705469 L20.8436133,21.6725977 L19.8698437,22.6463672 C19.6410352,22.8751758 19.6410352,23.2461914 19.8698437,23.4750586 L22.8798047,26.4850195 L2.9296875,26.4850195 C1.96042969,26.4850195 1.171875,25.6964648 1.171875,24.727207 L1.171875,5.38804687 C1.19121094,5.38998047 1.21083984,5.39103516 1.23070313,5.39103516 L28.828125,5.39103516 L28.828125,23.437207 C28.828125,23.7608203 29.0904492,24.0231445 29.4140625,24.0231445 Z M22.0862695,22.0872656 C22.0863867,22.0871484 22.0864453,22.0870898 22.0865625,22.0869727 C22.0866797,22.0868555 22.0867383,22.0867969 22.0868555,22.0866797 L23.0601563,21.1133789 L28.4250586,26.4783398 C28.9619531,27.0152344 28.9619531,27.88875 28.4250586,28.4255859 C27.8882227,28.9624805 27.0145898,28.9624805 26.4777539,28.4255859 L22.7462695,24.6941602 L23.7200391,23.7203906 C23.9488477,23.491582 23.9488477,23.1205664 23.7200391,22.8916992 C23.4912305,22.6628906 23.1202148,22.6628906 22.8913477,22.8916992 L21.9175781,23.8654688 L21.112793,23.0606836 L22.0862695,22.0872656 Z M1.23070313,4.21916016 C1.21083984,4.21916016 1.19121094,4.22021484 1.171875,4.22214844 L1.171875,2.93009766 C1.171875,1.96083984 1.96042969,1.17228516 2.9296875,1.17228516 L27.0703125,1.17228516 C28.0395703,1.17228516 28.828125,1.96083984 28.828125,2.93009766 L28.828125,4.21916016 L1.23070313,4.21916016 Z" id="形状" fill="#000000"></path>
                    <path d="M26.25,2.10978516 L13.0116211,2.10978516 C12.6880078,2.10978516 12.4256836,2.37210937 12.4256836,2.69572266 C12.4256836,3.01933594 12.6880078,3.28166016 13.0116211,3.28166016 L26.25,3.28166016 C26.5736133,3.28166016 26.8359375,3.01933594 26.8359375,2.69572266 C26.8359375,2.37210938 26.5736133,2.10978516 26.25,2.10978516 Z" id="路径" fill="#000000"></path>
                    <path d="M6.09375,2.10978516 C5.93964844,2.10978516 5.78847656,2.17248047 5.67949219,2.28146484 C5.57050781,2.39044922 5.5078125,2.54162109 5.5078125,2.69572266 C5.5078125,2.84982422 5.57050781,3.00099609 5.67949219,3.10998047 C5.78847656,3.21896484 5.93964844,3.28166016 6.09375,3.28166016 C6.24785156,3.28166016 6.39902344,3.21896484 6.50800781,3.10998047 C6.61699219,3.00099609 6.6796875,2.84982422 6.6796875,2.69572266 C6.6796875,2.54162109 6.61699219,2.39044922 6.50800781,2.28146484 C6.39902344,2.17248047 6.24785156,2.10978516 6.09375,2.10978516 Z" id="路径" fill="#000000"></path>
                    <path d="M3.75,2.10978516 C3.59589844,2.10978516 3.44472656,2.17248047 3.33574219,2.28146484 C3.22675781,2.39044922 3.1640625,2.54162109 3.1640625,2.69572266 C3.1640625,2.84982422 3.22675781,3.00099609 3.33574219,3.10998047 C3.44472656,3.21896484 3.59589844,3.28166016 3.75,3.28166016 C3.90410156,3.28166016 4.05527344,3.21896484 4.16425781,3.10998047 C4.27324219,3.00099609 4.3359375,2.84982422 4.3359375,2.69572266 C4.3359375,2.54162109 4.27324219,2.39044922 4.16425781,2.28146484 C4.05527344,2.17248047 3.90410156,2.10978516 3.75,2.10978516 Z" id="路径" fill="#000000"></path>
                    <path d="M8.4375,2.10978516 C8.28339844,2.10978516 8.13222656,2.17248047 8.02324219,2.28146484 C7.91425781,2.39044922 7.8515625,2.54162109 7.8515625,2.69572266 C7.8515625,2.84982422 7.91425781,3.00099609 8.02324219,3.10998047 C8.13222656,3.21896484 8.28339844,3.28166016 8.4375,3.28166016 C8.59160156,3.28166016 8.74277344,3.21896484 8.85175781,3.10998047 C8.96074219,3.00099609 9.0234375,2.84982422 9.0234375,2.69572266 C9.0234375,2.54162109 8.96074219,2.39044922 8.85175781,2.28146484 C8.74277344,2.17248047 8.59160156,2.10978516 8.4375,2.10978516 Z" id="路径" fill="#000000"></path>
                    <path d="M14.8655859,7.78359375 C14.8664648,7.78359375 14.8673437,7.78359375 14.8682227,7.78359375 C15.1906055,7.78359375 15.4526953,7.52296875 15.4541072,7.20023438 C15.4555078,6.87667969 15.1943555,6.613125 14.8707422,6.61171875 L14.8486523,6.61171875 C14.5250391,6.61171875 14.2627148,6.87404297 14.2627148,7.19765625 C14.2627148,7.52126953 14.5250391,7.78359375 14.8486523,7.78359375 L14.8655859,7.78359375 Z" id="路径" fill="#000000"></path>
                    <path d="M3.1640625,23.6722852 C3.1640625,23.9958984 3.42638672,24.2582227 3.75,24.2582227 L7.75388672,24.2582227 C8.0775,24.2582227 8.33982422,23.9958984 8.33982422,23.6722852 C8.33982422,23.3486719 8.0775,23.0863477 7.75388672,23.0863477 L3.75,23.0863477 C3.42638672,23.0863477 3.1640625,23.3486719 3.1640625,23.6722852 Z" id="路径" fill="#000000"></path>
                    <path d="M6.33216797,20.7425977 L3.75,20.7425977 C3.42638672,20.7425977 3.1640625,21.0049219 3.1640625,21.3285352 C3.1640625,21.6521484 3.42638672,21.9144727 3.75,21.9144727 L6.33216797,21.9144727 C6.65578125,21.9144727 6.91810547,21.6521484 6.91810547,21.3285352 C6.91810547,21.0049219 6.65578125,20.7425977 6.33216797,20.7425977 Z" id="路径" fill="#000000"></path>
                    <path d="M10.3951172,24.086543 C10.5041016,23.9775586 10.5662109,23.8263867 10.5662109,23.6722852 C10.5662109,23.5181836 10.5041016,23.3670117 10.3951172,23.2580273 C10.2855469,23.149043 10.1349609,23.0863477 9.98027344,23.0863477 C9.82617188,23.0863477 9.675,23.149043 9.56601563,23.2580273 C9.45703125,23.3670117 9.39433594,23.5181836 9.39433594,23.6722852 C9.39433594,23.8263867 9.45703125,23.9775586 9.56601563,24.086543 C9.675,24.1955273 9.82617188,24.2582227 9.98027344,24.2582227 C10.1349609,24.2582227 10.2855469,24.1955273 10.3951172,24.086543 Z" id="路径" fill="#000000"></path>
                    <path d="M26.25,6.91447266 L21.6722461,6.91447266 C21.3486328,6.91447266 21.0863086,7.17679687 21.0863086,7.50041016 C21.0863086,7.82402344 21.3486328,8.08634766 21.6722461,8.08634766 L26.25,8.08634766 C26.5736133,8.08634766 26.8359375,7.82402344 26.8359375,7.50041016 C26.8359375,7.17679687 26.5736133,6.91447266 26.25,6.91447266 Z" id="路径" fill="#000000"></path>
                    <path d="M26.25,9.25822266 L23.9794922,9.25822266 C23.6558789,9.25822266 23.3935547,9.52054688 23.3935547,9.84416016 C23.3935547,10.1677734 23.6558789,10.4300977 23.9794922,10.4300977 L26.25,10.4300977 C26.5736133,10.4300977 26.8359375,10.1677734 26.8359375,9.84416016 C26.8359375,9.52054688 26.5736133,9.25822266 26.25,9.25822266 Z" id="路径" fill="#000000"></path>
                    <path d="M14.9432813,10.2011133 L14.7738281,10.2011133 C13.8873047,10.2011133 13.1660742,10.9223437 13.1660742,11.8088672 L13.1660742,12.2197266 C12.6196289,12.5080078 12.1587891,12.9369141 11.8317188,13.4583398 L11.2804688,12.9035156 C11.0523633,12.6739453 10.6813477,12.6727734 10.4518359,12.9008789 C10.2223242,13.1289844 10.2210938,13.4999414 10.4491992,13.7295117 L11.3630273,14.6492578 C11.3340234,14.8007813 11.3143945,14.9555859 11.3057227,15.1133203 L10.3975781,15.1133203 C10.0739648,15.1133203 9.81164063,15.3756445 9.81164063,15.6992578 C9.81164063,16.0228711 10.0739648,16.2851953 10.3975781,16.2851953 L11.3051367,16.2851953 C11.313457,16.4445703 11.3332617,16.6008398 11.3624414,16.7538867 L10.4492578,17.6730469 C10.2211523,17.9026172 10.2223828,18.2736328 10.4518945,18.5016797 C10.5662109,18.6152344 10.7155664,18.6719531 10.8648633,18.6719531 C11.0154492,18.6719531 11.1660352,18.6142383 11.2805273,18.4989844 L11.8302539,17.9456836 C12.4471875,18.9308789 13.5417188,19.5878906 14.7874219,19.5878906 L14.9299219,19.5878906 C16.1704102,19.5878906 17.260957,18.9362695 17.8792383,17.9578711 L18.4168359,18.4989258 C18.5313867,18.6141797 18.6819141,18.6718945 18.8325,18.6718945 C18.9817969,18.6718945 19.1312109,18.6151758 19.2454688,18.5016211 C19.4749805,18.2735156 19.4762109,17.9025586 19.2481055,17.6729883 L18.3517969,16.7708203 C18.3825,16.6136719 18.4030664,16.4530078 18.4118555,16.2891211 L19.2997852,16.2891211 C19.6233984,16.2891211 19.8857227,16.0267969 19.8857227,15.7031836 C19.8857227,15.3795703 19.6233984,15.1172461 19.2997852,15.1172461 L18.4118555,15.1172461 C18.4030078,14.9522461 18.3823242,14.7903516 18.3512109,14.6321484 L19.2481641,13.7293945 C19.4762695,13.4998242 19.4750391,13.1288086 19.2455273,12.9007617 C19.015957,12.6726563 18.6449414,12.6738867 18.4168945,12.9033984 L17.8777734,13.4460352 C17.5511719,12.9301758 17.0933789,12.5056055 16.5512109,12.2196094 L16.5512109,11.80875 C16.5510352,10.9223437 15.8298047,10.2011133 14.9432813,10.2011133 Z M14.3380078,11.8185352 L14.3380078,11.8088672 C14.3380078,11.5685156 14.5335352,11.3729883 14.7738867,11.3729883 L14.9433398,11.3729883 C15.1836914,11.3729883 15.3792187,11.5685156 15.3792187,11.8088672 L15.3792187,11.8185352 L14.9299219,11.8185352 L14.7874219,11.8185352 L14.3380078,11.8185352 Z M17.2451367,15.3057422 L17.2451367,16.1007422 C17.2451367,17.3773828 16.2065039,18.4160156 14.9298047,18.4160156 L14.7873047,18.4160156 C13.5106055,18.4160156 12.4719727,17.3773828 12.4719727,16.1007422 L12.4719727,15.3057422 C12.4719727,14.029043 13.5106055,12.9904102 14.7873047,12.9904102 L14.9298047,12.9904102 C16.2065039,12.9904102 17.2451367,14.029043 17.2451367,15.3057422 Z" id="形状" fill="#000000"></path>
                </g>
            </g>
        </g>
    </g>
</svg>