<?xml version="1.0" encoding="UTF-8"?>
<svg width="37px" height="35px" viewBox="0 0 37 35" version="1.1" xmlns="http://www.w3.org/2000/svg" xmlns:xlink="http://www.w3.org/1999/xlink">
    <!-- Generator: Sketch 63.1 (92452) - https://sketch.com -->
    <title>bug</title>
    <desc>Created with Sketch.</desc>
    <g id="测试-计划" stroke="none" stroke-width="1" fill="none" fill-rule="evenodd">
        <g id="测试-测试报告-MVP" transform="translate(-564.000000, -465.000000)">
            <g id="解决缺陷" transform="translate(564.000000, 464.000000)">
                <g id="bug" transform="translate(0.000000, 1.000000)">
                    <path d="M4.8046875,32.070957 L2.9296875,32.070957 C1.63529297,32.070957 0.5859375,31.0216016 0.5859375,29.727207 L0.5859375,7.93009766 C0.5859375,6.63570312 1.63529297,5.58634766 2.9296875,5.58634766 L27.0703125,5.58634766 C28.364707,5.58634766 29.4140625,6.63570312 29.4140625,7.93009766 L29.4140625,29.727207 C29.4140625,31.0216016 28.364707,32.070957 27.0703125,32.070957 L24.6679688,32.070957 L4.8046875,32.070957 Z" id="路径" fill="#FFFFFF" fill-rule="nonzero"></path>
                    <path d="M27.0703125,5.58634766 L2.9296875,5.58634766 C1.63529297,5.58634766 0.5859375,6.63570312 0.5859375,7.93009766 L0.5859375,9.80509766 L29.4140625,9.80509766 L29.4140625,7.93009766 C29.4140625,6.63564453 28.364707,5.58634766 27.0703125,5.58634766 Z" id="路径" fill="#9DBFFF" fill-rule="nonzero"></path>
                    <line x1="1.23070312" y1="9.82580078" x2="29.0625" y2="9.82580078" id="路径" fill="#231F20" fill-rule="nonzero"></line>
                    <circle id="椭圆形" fill="#AAC9FF" fill-rule="nonzero" cx="14.8488281" cy="19.8488281" r="7.65117188"></circle>
                    <path d="M28.8393164,33.8399609 L28.8393164,33.8399609 C28.0727344,34.606543 26.8299023,34.606543 26.0633789,33.8399609 L20.2841602,28.0607422 L23.0600977,25.2848047 L28.8393164,31.0640234 C29.6058984,31.8305469 29.6058984,33.0733789 28.8393164,33.8399609 Z" id="路径" fill="#F5B955" fill-rule="nonzero"></path>
                    <path d="M14.9298633,24.0020117 L14.7873633,24.0020117 C13.1850586,24.0020117 11.8860938,22.7031055 11.8860938,21.1007422 L11.8860938,20.3057422 C11.8860938,18.7034375 13.185,17.4044727 14.7873633,17.4044727 L14.9298633,17.4044727 C16.532168,17.4044727 17.8311328,18.7033789 17.8311328,20.3057422 L17.8311328,21.1007422 C17.8311328,22.7030469 16.532168,24.0020117 14.9298633,24.0020117 Z" id="路径" fill="#FF5A5A" fill-rule="nonzero"></path>
                    <path d="M15.9650977,17.4044727 L13.7520117,17.4044727 L13.7520117,16.8088672 C13.7520117,16.2445508 14.2095117,15.7870508 14.7738281,15.7870508 L14.9432813,15.7870508 C15.5075977,15.7870508 15.9650977,16.2445508 15.9650977,16.8088672 L15.9650977,17.4044727 Z" id="路径" fill="#4B7FF5" fill-rule="nonzero"></path>
                    <path d="M29.4140625,29.0231445 C29.7376758,29.0231445 30,28.7608203 30,28.437207 L30,7.93009766 C30,6.31466797 28.6857422,5.00041016 27.0703125,5.00041016 L2.9296875,5.00041016 C1.31425781,5.00041016 0,6.31466797 0,7.93009766 L0,29.727207 C0,31.3426367 1.31425781,32.6568945 2.9296875,32.6568945 L24.0516797,32.6568945 L25.6490625,34.2542773 C26.1459375,34.7511523 26.7986719,34.9995898 27.4513477,34.9995898 C28.1040234,34.9995898 28.7567578,34.7511523 29.2536328,34.2542773 C30.2473828,33.2604687 30.2473828,31.643457 29.2536328,30.6496484 L23.4744141,24.8704297 C23.3645508,24.7605664 23.2154883,24.6988086 23.0600977,24.6988086 C22.904707,24.6988086 22.7556445,24.7605664 22.6457812,24.8704297 L21.6722461,25.8439648 L21.0701953,25.2419141 C22.325332,23.7958789 23.0859375,21.9096289 23.0859375,19.8490039 C23.0859375,18.0576758 22.5207422,16.3542969 21.4514062,14.9231445 C20.4179297,13.5399219 18.9454687,12.49625 17.3052539,11.9844336 C16.9964062,11.8880469 16.6677539,12.0603125 16.5713672,12.3692187 C16.4749219,12.678125 16.6472461,13.0067187 16.9561523,13.1031055 C19.9216406,14.0284766 21.9140625,16.7394922 21.9140625,19.8490039 C21.9140625,23.7449023 18.7444922,26.9144141 14.8486523,26.9144141 C10.9528125,26.9144141 7.78324219,23.7448437 7.78324219,19.8490039 C7.78324219,16.7665039 9.75333984,14.0625781 12.6854883,13.1206836 C12.9935742,13.0217187 13.1631445,12.6917187 13.0641797,12.3835742 C12.9652148,12.0754297 12.6350977,11.9060937 12.3271289,12.0049414 C10.6793555,12.5342773 9.26121094,13.5525781 8.22603516,14.9498633 C7.16970703,16.3755664 6.61136719,18.0696875 6.61136719,19.8490039 C6.61136719,24.3910742 10.306582,28.0862891 14.8486523,28.0862891 C16.9092773,28.0862891 18.7955273,27.3256836 20.2415625,26.0705469 L20.8436133,26.6725977 L19.8698437,27.6463672 C19.6410352,27.8751758 19.6410352,28.2461914 19.8698437,28.4750586 L22.8798047,31.4850195 L2.9296875,31.4850195 C1.96042969,31.4850195 1.171875,30.6964648 1.171875,29.727207 L1.171875,10.3880469 C1.19121094,10.3899805 1.21083984,10.3910352 1.23070313,10.3910352 L28.828125,10.3910352 L28.828125,28.437207 C28.828125,28.7608203 29.0904492,29.0231445 29.4140625,29.0231445 Z M22.0862695,27.0872656 C22.0863867,27.0871484 22.0864453,27.0870898 22.0865625,27.0869727 C22.0866797,27.0868555 22.0867383,27.0867969 22.0868555,27.0866797 L23.0601563,26.1133789 L28.4250586,31.4783398 C28.9619531,32.0152344 28.9619531,32.88875 28.4250586,33.4255859 C27.8882227,33.9624805 27.0145898,33.9624805 26.4777539,33.4255859 L22.7462695,29.6941602 L23.7200391,28.7203906 C23.9488477,28.491582 23.9488477,28.1205664 23.7200391,27.8916992 C23.4912305,27.6628906 23.1202148,27.6628906 22.8913477,27.8916992 L21.9175781,28.8654687 L21.112793,28.0606836 L22.0862695,27.0872656 Z M1.23070313,9.21916016 C1.21083984,9.21916016 1.19121094,9.22021484 1.171875,9.22214844 L1.171875,7.93009766 C1.171875,6.96083984 1.96042969,6.17228516 2.9296875,6.17228516 L27.0703125,6.17228516 C28.0395703,6.17228516 28.828125,6.96083984 28.828125,7.93009766 L28.828125,9.21916016 L1.23070313,9.21916016 Z" id="形状" fill="#000000" fill-rule="nonzero"></path>
                    <path d="M26.25,7.10978516 L13.0116211,7.10978516 C12.6880078,7.10978516 12.4256836,7.37210937 12.4256836,7.69572266 C12.4256836,8.01933594 12.6880078,8.28166016 13.0116211,8.28166016 L26.25,8.28166016 C26.5736133,8.28166016 26.8359375,8.01933594 26.8359375,7.69572266 C26.8359375,7.37210937 26.5736133,7.10978516 26.25,7.10978516 Z" id="路径" fill="#000000" fill-rule="nonzero"></path>
                    <path d="M6.09375,7.10978516 C5.93964844,7.10978516 5.78847656,7.17248047 5.67949219,7.28146484 C5.57050781,7.39044922 5.5078125,7.54162109 5.5078125,7.69572266 C5.5078125,7.84982422 5.57050781,8.00099609 5.67949219,8.10998047 C5.78847656,8.21896484 5.93964844,8.28166016 6.09375,8.28166016 C6.24785156,8.28166016 6.39902344,8.21896484 6.50800781,8.10998047 C6.61699219,8.00099609 6.6796875,7.84982422 6.6796875,7.69572266 C6.6796875,7.54162109 6.61699219,7.39044922 6.50800781,7.28146484 C6.39902344,7.17248047 6.24785156,7.10978516 6.09375,7.10978516 Z" id="路径" fill="#000000" fill-rule="nonzero"></path>
                    <path d="M3.75,7.10978516 C3.59589844,7.10978516 3.44472656,7.17248047 3.33574219,7.28146484 C3.22675781,7.39044922 3.1640625,7.54162109 3.1640625,7.69572266 C3.1640625,7.84982422 3.22675781,8.00099609 3.33574219,8.10998047 C3.44472656,8.21896484 3.59589844,8.28166016 3.75,8.28166016 C3.90410156,8.28166016 4.05527344,8.21896484 4.16425781,8.10998047 C4.27324219,8.00099609 4.3359375,7.84982422 4.3359375,7.69572266 C4.3359375,7.54162109 4.27324219,7.39044922 4.16425781,7.28146484 C4.05527344,7.17248047 3.90410156,7.10978516 3.75,7.10978516 Z" id="路径" fill="#000000" fill-rule="nonzero"></path>
                    <path d="M8.4375,7.10978516 C8.28339844,7.10978516 8.13222656,7.17248047 8.02324219,7.28146484 C7.91425781,7.39044922 7.8515625,7.54162109 7.8515625,7.69572266 C7.8515625,7.84982422 7.91425781,8.00099609 8.02324219,8.10998047 C8.13222656,8.21896484 8.28339844,8.28166016 8.4375,8.28166016 C8.59160156,8.28166016 8.74277344,8.21896484 8.85175781,8.10998047 C8.96074219,8.00099609 9.0234375,7.84982422 9.0234375,7.69572266 C9.0234375,7.54162109 8.96074219,7.39044922 8.85175781,7.28146484 C8.74277344,7.17248047 8.59160156,7.10978516 8.4375,7.10978516 Z" id="路径" fill="#000000" fill-rule="nonzero"></path>
                    <path d="M14.8655859,12.7835937 C14.8664648,12.7835937 14.8673438,12.7835937 14.8682227,12.7835937 C15.1906055,12.7835937 15.4526953,12.5229687 15.4541072,12.2002344 C15.4555078,11.8766797 15.1943555,11.613125 14.8707422,11.6117187 L14.8486523,11.6117187 C14.5250391,11.6117187 14.2627148,11.874043 14.2627148,12.1976562 C14.2627148,12.5212695 14.5250391,12.7835937 14.8486523,12.7835937 L14.8655859,12.7835937 Z" id="路径" fill="#000000" fill-rule="nonzero"></path>
                    <path d="M3.1640625,28.6722852 C3.1640625,28.9958984 3.42638672,29.2582227 3.75,29.2582227 L7.75388672,29.2582227 C8.0775,29.2582227 8.33982422,28.9958984 8.33982422,28.6722852 C8.33982422,28.3486719 8.0775,28.0863477 7.75388672,28.0863477 L3.75,28.0863477 C3.42638672,28.0863477 3.1640625,28.3486719 3.1640625,28.6722852 Z" id="路径" fill="#000000" fill-rule="nonzero"></path>
                    <path d="M6.33216797,25.7425977 L3.75,25.7425977 C3.42638672,25.7425977 3.1640625,26.0049219 3.1640625,26.3285352 C3.1640625,26.6521484 3.42638672,26.9144727 3.75,26.9144727 L6.33216797,26.9144727 C6.65578125,26.9144727 6.91810547,26.6521484 6.91810547,26.3285352 C6.91810547,26.0049219 6.65578125,25.7425977 6.33216797,25.7425977 Z" id="路径" fill="#000000" fill-rule="nonzero"></path>
                    <path d="M10.3951172,29.086543 C10.5041016,28.9775586 10.5662109,28.8263867 10.5662109,28.6722852 C10.5662109,28.5181836 10.5041016,28.3670117 10.3951172,28.2580273 C10.2855469,28.149043 10.1349609,28.0863477 9.98027344,28.0863477 C9.82617188,28.0863477 9.675,28.149043 9.56601563,28.2580273 C9.45703125,28.3670117 9.39433594,28.5181836 9.39433594,28.6722852 C9.39433594,28.8263867 9.45703125,28.9775586 9.56601563,29.086543 C9.675,29.1955273 9.82617188,29.2582227 9.98027344,29.2582227 C10.1349609,29.2582227 10.2855469,29.1955273 10.3951172,29.086543 Z" id="路径" fill="#000000" fill-rule="nonzero"></path>
                    <path d="M26.25,11.9144727 L21.6722461,11.9144727 C21.3486328,11.9144727 21.0863086,12.1767969 21.0863086,12.5004102 C21.0863086,12.8240234 21.3486328,13.0863477 21.6722461,13.0863477 L26.25,13.0863477 C26.5736133,13.0863477 26.8359375,12.8240234 26.8359375,12.5004102 C26.8359375,12.1767969 26.5736133,11.9144727 26.25,11.9144727 Z" id="路径" fill="#000000" fill-rule="nonzero"></path>
                    <path d="M26.25,14.2582227 L23.9794922,14.2582227 C23.6558789,14.2582227 23.3935547,14.5205469 23.3935547,14.8441602 C23.3935547,15.1677734 23.6558789,15.4300977 23.9794922,15.4300977 L26.25,15.4300977 C26.5736133,15.4300977 26.8359375,15.1677734 26.8359375,14.8441602 C26.8359375,14.5205469 26.5736133,14.2582227 26.25,14.2582227 Z" id="路径" fill="#000000" fill-rule="nonzero"></path>
                    <path d="M14.9432813,15.2011133 L14.7738281,15.2011133 C13.8873047,15.2011133 13.1660742,15.9223437 13.1660742,16.8088672 L13.1660742,17.2197266 C12.6196289,17.5080078 12.1587891,17.9369141 11.8317188,18.4583398 L11.2804688,17.9035156 C11.0523633,17.6739453 10.6813477,17.6727734 10.4518359,17.9008789 C10.2223242,18.1289844 10.2210938,18.4999414 10.4491992,18.7295117 L11.3630273,19.6492578 C11.3340234,19.8007812 11.3143945,19.9555859 11.3057227,20.1133203 L10.3975781,20.1133203 C10.0739648,20.1133203 9.81164063,20.3756445 9.81164063,20.6992578 C9.81164063,21.0228711 10.0739648,21.2851953 10.3975781,21.2851953 L11.3051367,21.2851953 C11.313457,21.4445703 11.3332617,21.6008398 11.3624414,21.7538867 L10.4492578,22.6730469 C10.2211523,22.9026172 10.2223828,23.2736328 10.4518945,23.5016797 C10.5662109,23.6152344 10.7155664,23.6719531 10.8648633,23.6719531 C11.0154492,23.6719531 11.1660352,23.6142383 11.2805273,23.4989844 L11.8302539,22.9456836 C12.4471875,23.9308789 13.5417188,24.5878906 14.7874219,24.5878906 L14.9299219,24.5878906 C16.1704102,24.5878906 17.260957,23.9362695 17.8792383,22.9578711 L18.4168359,23.4989258 C18.5313867,23.6141797 18.6819141,23.6718945 18.8325,23.6718945 C18.9817969,23.6718945 19.1312109,23.6151758 19.2454688,23.5016211 C19.4749805,23.2735156 19.4762109,22.9025586 19.2481055,22.6729883 L18.3517969,21.7708203 C18.3825,21.6136719 18.4030664,21.4530078 18.4118555,21.2891211 L19.2997852,21.2891211 C19.6233984,21.2891211 19.8857227,21.0267969 19.8857227,20.7031836 C19.8857227,20.3795703 19.6233984,20.1172461 19.2997852,20.1172461 L18.4118555,20.1172461 C18.4030078,19.9522461 18.3823242,19.7903516 18.3512109,19.6321484 L19.2481641,18.7293945 C19.4762695,18.4998242 19.4750391,18.1288086 19.2455273,17.9007617 C19.015957,17.6726562 18.6449414,17.6738867 18.4168945,17.9033984 L17.8777734,18.4460352 C17.5511719,17.9301758 17.0933789,17.5056055 16.5512109,17.2196094 L16.5512109,16.80875 C16.5510352,15.9223437 15.8298047,15.2011133 14.9432813,15.2011133 Z M14.3380078,16.8185352 L14.3380078,16.8088672 C14.3380078,16.5685156 14.5335352,16.3729883 14.7738867,16.3729883 L14.9433398,16.3729883 C15.1836914,16.3729883 15.3792188,16.5685156 15.3792188,16.8088672 L15.3792188,16.8185352 L14.9299219,16.8185352 L14.7874219,16.8185352 L14.3380078,16.8185352 Z M17.2451367,20.3057422 L17.2451367,21.1007422 C17.2451367,22.3773828 16.2065039,23.4160156 14.9298047,23.4160156 L14.7873047,23.4160156 C13.5106055,23.4160156 12.4719727,22.3773828 12.4719727,21.1007422 L12.4719727,20.3057422 C12.4719727,19.029043 13.5106055,17.9904102 14.7873047,17.9904102 L14.9298047,17.9904102 C16.2065039,17.9904102 17.2451367,19.029043 17.2451367,20.3057422 Z" id="形状" fill="#000000" fill-rule="nonzero"></path>
                    <circle id="椭圆形" stroke="#000000" fill="#FFFFFF" cx="30" cy="7" r="6.5"></circle>
                    <polyline id="路径" stroke="#00BFA5" stroke-width="2" stroke-linecap="round" stroke-linejoin="round" transform="translate(30.000000, 6.312127) rotate(-45.000000) translate(-30.000000, -6.312127) " points="33 7.62425374 27 7.62425374 27 5"></polyline>
                </g>
            </g>
        </g>
    </g>
</svg>