<?xml version="1.0" encoding="UTF-8"?>
<svg width="30px" height="29px" viewBox="0 0 30 29" version="1.1" xmlns="http://www.w3.org/2000/svg" xmlns:xlink="http://www.w3.org/1999/xlink">
    <!-- Generator: Sketch 63.1 (92452) - https://sketch.com -->
    <title>clock</title>
    <desc>Created with Sketch.</desc>
    <g id="测试-计划" stroke="none" stroke-width="1" fill="none" fill-rule="evenodd">
        <g id="测试-测试报告-MVP" transform="translate(-513.000000, -219.000000)" fill-rule="nonzero">
            <g id="持续时间" transform="translate(513.000000, 214.000000)">
                <g id="clock" transform="translate(0.000000, 5.000000)">
                    <g id="XMLID_1434_" transform="translate(6.914062, 0.589431)">
                        <rect id="XMLID_1457_" fill="#D5DBFB" x="9.23677734" y="2.84471138" width="4.00863281" height="2.3268374"></rect>
                        <path d="M9.13171875,2.84471138 L13.3504688,2.84471138 C14.1271289,2.84471138 14.7567188,2.21136789 14.7567188,1.43007724 L14.7567188,1.43007724 C14.7567188,0.648786585 14.1271289,0.0154430894 13.3504688,0.0154430894 L9.13171875,0.0154430894 C8.35505859,0.0154430894 7.72546875,0.648786585 7.72546875,1.43007724 L7.72546875,1.43007724 C7.72546875,2.21136789 8.35505859,2.84471138 9.13171875,2.84471138 Z" id="XMLID_1456_" fill="#FF5A5A"></path>
                        <ellipse id="XMLID_1452_" fill="#B2C6FF" cx="11.2500586" cy="16.488622" rx="11.25" ry="11.3170732"></ellipse>
                        <ellipse id="XMLID_2618_" fill="#FFFFFF" cx="11.2500586" cy="16.488622" rx="8.50365234" ry="8.55435163"></ellipse>
                        <ellipse id="XMLID_2592_" fill="#FF5A5A" cx="11.2500586" cy="16.488622" rx="1.23480469" ry="1.24216667"></ellipse>
                    </g>
                    <g id="XMLID_386_" fill="#000000">
                        <path d="M29.9416992,15.8937683 C29.6723438,13.1683577 28.4619727,10.5989695 26.533418,8.65885772 C24.885293,7.00096545 22.8680273,5.93556911 20.7454102,5.4618435 L20.7454102,3.96421748 C21.6123633,3.74724797 22.2567773,2.95782317 22.2567773,2.01950813 C22.2567773,0.914443089 21.3631055,0.0154430894 20.2645898,0.0154430894 L16.0458398,0.0154430894 C14.9473242,0.0154430894 14.0536523,0.914443089 14.0536523,2.01950813 C14.0536523,2.95776423 14.6980664,3.74718902 15.5649609,3.96421748 L15.5649609,5.46602846 C13.4488477,5.94175813 11.4382617,7.00568089 9.79482422,8.65891667 C9.43517578,9.02070935 9.10353516,9.4002439 8.79996094,9.79469106 C8.78525391,9.79357114 8.77054687,9.79245122 8.75554687,9.79245122 L4.58009766,9.79245122 C4.25654297,9.79245122 3.99416016,10.0563394 3.99416016,10.3818821 C3.99416016,10.7074248 4.25654297,10.971313 4.58009766,10.971313 L8.00267578,10.971313 C7.57306641,11.6948394 7.22666016,12.4546748 6.96298828,13.2368496 L0.5859375,13.2368496 C0.262382813,13.2368496 0,13.5007378 0,13.8262805 C0,14.1518232 0.262382813,14.4157114 0.5859375,14.4157114 L6.631875,14.4157114 C6.46300781,15.1614004 6.36609375,15.9202927 6.34107422,16.6813069 L3.75,16.6813069 C3.42644531,16.6813069 3.1640625,16.9451951 3.1640625,17.2707378 C3.1640625,17.5962805 3.42644531,17.8601687 3.75,17.8601687 L6.35976562,17.8601687 C6.40921875,18.623128 6.53115234,19.3820793 6.725625,20.1257642 L2.9296875,20.1257642 C2.60613281,20.1257642 2.34375,20.3896524 2.34375,20.7151951 C2.34375,21.0407378 2.60613281,21.304626 2.9296875,21.304626 L7.09957031,21.304626 C7.674375,22.8342581 8.57267578,24.2679309 9.79482422,25.4973659 C11.7252539,27.4393049 14.2820508,28.657187 16.9941211,28.9267337 C17.3811914,28.9651646 17.7685547,28.9842033 18.1553906,28.9842033 C20.4418359,28.9842033 22.6992188,28.3185589 24.6146484,27.0637785 C24.8858203,26.886124 24.9625195,26.5209715 24.785918,26.2481829 C24.6093164,25.9753943 24.2463281,25.8982378 23.9751563,26.0758923 C19.7823633,28.8224634 14.1671484,28.2286118 10.623457,24.6637927 C6.46552734,20.4810732 6.46552734,13.6753272 10.623457,9.49254878 C14.7813281,5.30988821 21.5467383,5.30988821 25.7047266,9.49254878 C29.2437305,13.0527114 29.8372852,18.6965711 27.1160156,22.9122988 C26.9397656,23.1853232 27.0169336,23.5504167 27.2882813,23.7276585 C27.5598047,23.9049593 27.9226172,23.8273313 28.0988086,23.5543069 C29.5527539,21.3017967 30.2072461,18.5812785 29.9416992,15.8937683 Z M15.2255273,2.01956707 C15.2255273,1.56452642 15.5934961,1.19436382 16.0458398,1.19436382 L20.2645898,1.19436382 C20.7169336,1.19436382 21.0849023,1.56452642 21.0849023,2.01956707 C21.0849023,2.47460772 20.7169336,2.84477033 20.2645898,2.84477033 L20.1594727,2.84477033 L16.1508984,2.84477033 L16.0458398,2.84477033 C15.5934961,2.84477033 15.2255273,2.47454878 15.2255273,2.01956707 Z M16.7368359,5.26338211 L16.7368359,4.02363211 L19.5735352,4.02363211 L19.5735352,5.26126016 C18.631582,5.14856098 17.6786133,5.14926829 16.7368359,5.26338211 Z" id="XMLID_389_"></path>
                        <path d="M26.1193359,24.4908537 C25.9646484,24.4908537 25.8140625,24.5539228 25.7051367,24.6635569 C25.5955664,24.7731911 25.5333984,24.9252642 25.5333984,25.0802846 C25.5333984,25.2353049 25.5955664,25.387378 25.7051367,25.4970122 C25.8140625,25.6072358 25.964707,25.6697154 26.1193359,25.6697154 C26.2734375,25.6697154 26.4240234,25.6072358 26.5335938,25.4970122 C26.6425781,25.387378 26.7052734,25.2353049 26.7052734,25.0802846 C26.7052734,24.9252642 26.6426367,24.7731911 26.5335938,24.6635569 C26.4240234,24.5539228 26.2733789,24.4908537 26.1193359,24.4908537 Z" id="XMLID_391_"></path>
                        <path d="M18.1641211,7.93427033 C13.1521289,7.93427033 9.07453125,12.0361199 9.07453125,17.0780528 C9.07453125,22.1199858 13.1521289,26.2218354 18.1641211,26.2218354 C23.1761133,26.2218354 27.2537109,22.1199858 27.2537109,17.0780528 C27.2537109,12.0361199 23.1761133,7.93427033 18.1641211,7.93427033 Z M18.1641211,25.0429736 C13.7982422,25.0429736 10.2464062,21.4699024 10.2464062,17.0780528 C10.2464062,12.6862033 13.7982422,9.11313211 18.1641211,9.11313211 C22.53,9.11313211 26.0818359,12.6862033 26.0818359,17.0780528 C26.0818359,21.4699024 22.53,25.0429736 18.1641211,25.0429736 Z" id="XMLID_394_"></path>
                        <path d="M21.8705273,12.5159756 L18.9683789,15.4353679 C18.7256836,15.3146524 18.4526953,15.2464553 18.1641211,15.2464553 C17.8754883,15.2464553 17.6025586,15.3146524 17.3598633,15.4353679 L16.0610156,14.1287764 C15.8321484,13.8986037 15.46125,13.8986037 15.2323242,14.1287764 C15.0035156,14.3589492 15.0035156,14.7321768 15.2323242,14.9623496 L16.5311719,16.2689411 C16.4111133,16.5130833 16.3433789,16.7876992 16.3433789,17.0779939 C16.3433789,18.0879248 17.1601172,18.9095915 18.1641211,18.9095915 C19.168125,18.9095915 19.9848633,18.0879248 19.9848633,17.0779939 C19.9848633,16.7876992 19.9170703,16.5130833 19.7970703,16.2689411 L22.6140234,13.4351931 L22.6140234,13.4351931 L22.6991602,13.3495488 C22.9279688,13.119376 22.9279688,12.7461484 22.6991602,12.5159756 C22.4703516,12.2858028 22.0994531,12.2858028 21.8705273,12.5159756 Z M18.1641211,17.7307886 C17.8063477,17.7307886 17.5152539,17.4379593 17.5152539,17.0780528 C17.5152539,16.7181463 17.8063477,16.4253171 18.1641211,16.4253171 C18.5218945,16.4253171 18.8129883,16.7181463 18.8129883,17.0780528 C18.8129883,17.4379593 18.5218945,17.7307886 18.1641211,17.7307886 Z" id="XMLID_397_"></path>
                        <path d="M24.4289062,16.495813 L23.8860352,16.495813 C23.5624805,16.495813 23.3000977,16.7597012 23.3000977,17.0852439 C23.3000977,17.4107866 23.5624805,17.6746748 23.8860352,17.6746748 L24.4289062,17.6746748 C24.7524609,17.6746748 25.0148437,17.4107866 25.0148437,17.0852439 C25.0148437,16.7597012 24.7524609,16.495813 24.4289062,16.495813 Z" id="XMLID_398_"></path>
                        <path d="M12.4421484,16.4814309 L11.8993359,16.4814309 C11.5757813,16.4814309 11.3133984,16.7453191 11.3133984,17.0708618 C11.3133984,17.3964045 11.5757813,17.6602927 11.8993359,17.6602927 L12.4421484,17.6602927 C12.7657031,17.6602927 13.0280859,17.3964045 13.0280859,17.0708618 C13.0280859,16.7453191 12.7657031,16.4814309 12.4421484,16.4814309 Z" id="XMLID_399_"></path>
                        <path d="M18.1712695,11.9113963 C18.4948242,11.9113963 18.757207,11.6475081 18.757207,11.3219654 L18.757207,10.7759167 C18.757207,10.450374 18.4948242,10.1864858 18.1712695,10.1864858 C17.8477148,10.1864858 17.585332,10.450374 17.585332,10.7759167 L17.585332,11.3219654 C17.585332,11.6475081 17.8477148,11.9113963 18.1712695,11.9113963 Z" id="XMLID_400_"></path>
                        <path d="M18.1569727,22.2447093 C17.833418,22.2447093 17.5710352,22.5085976 17.5710352,22.8341402 L17.5710352,23.380189 C17.5710352,23.7057317 17.833418,23.9696199 18.1569727,23.9696199 C18.4805273,23.9696199 18.7429102,23.7057317 18.7429102,23.380189 L18.7429102,22.8341402 C18.7429102,22.5085976 18.4805273,22.2447093 18.1569727,22.2447093 Z" id="XMLID_424_"></path>
                        <path d="M0.5859375,20.1255285 C0.431835938,20.1255285 0.280664063,20.1885976 0.171679687,20.2982317 C0.0626953125,20.4078659 -2.60208521e-17,20.559939 -2.60208521e-17,20.7149593 C-2.60208521e-17,20.8705691 0.0626367187,21.0220528 0.171679687,21.131687 C0.280722656,21.2413211 0.431835938,21.3043902 0.5859375,21.3043902 C0.740039062,21.3043902 0.891210938,21.2413211 1.00013672,21.131687 C1.10912109,21.0220528 1.171875,20.8699797 1.171875,20.7149593 C1.171875,20.559939 1.10917969,20.4078659 1.00013672,20.2982317 C0.891210938,20.1885976 0.740039063,20.1255285 0.5859375,20.1255285 Z" id="XMLID_425_"></path>
                    </g>
                </g>
            </g>
        </g>
    </g>
</svg>