<?xml version="1.0" encoding="UTF-8"?>
<svg width="30px" height="30px" viewBox="0 0 30 30" version="1.1" xmlns="http://www.w3.org/2000/svg" xmlns:xlink="http://www.w3.org/1999/xlink">
    <!-- Generator: Sketch 63.1 (92452) - https://sketch.com -->
    <title>server</title>
    <desc>Created with Sketch.</desc>
    <g id="测试-计划" stroke="none" stroke-width="1" fill="none" fill-rule="evenodd">
        <g id="测试-测试报告-MVP" transform="translate(-602.000000, -343.000000)" fill-rule="nonzero">
            <g id="编组-3" transform="translate(602.000000, 339.000000)">
                <g id="server" transform="translate(0.000000, 4.000000)">
                    <path d="M9.14285156,29.4141211 L8.20535156,29.4141211 C7.558125,29.4141211 7.03347656,28.8894727 7.03347656,28.2422461 L7.03347656,28.2422461 C7.03347656,27.5950195 7.558125,27.0703711 8.20535156,27.0703711 L9.14285156,27.0703711 C9.79007813,27.0703711 10.3147266,27.5950195 10.3147266,28.2422461 L10.3147266,28.2422461 C10.3147266,28.8894727 9.79007813,29.4141211 9.14285156,29.4141211 Z" id="路径" fill="#FF5A5A"></path>
                    <g id="编组" transform="translate(21.210938, 0.585938)" fill="#F5B955">
                        <polygon id="路径" points="8.20318359 0.880488281 4.89134766 0.880488281 4.51804688 5.859375e-05 1.27804688 5.859375e-05 0.904746094 0.880488281 5.859375e-05 0.880488281 5.859375e-05 7.03130859 8.20318359 7.03130859"></polygon>
                        <polygon id="路径" points="8.20318359 9.55236328 4.89134766 9.55236328 4.51804688 8.67193359 1.27804688 8.67193359 0.904746094 9.55236328 5.859375e-05 9.55236328 5.859375e-05 15.7031836 8.20318359 15.7031836"></polygon>
                        <polygon id="路径" points="8.20318359 18.4570898 4.89134766 18.4570898 4.51804688 17.5767188 1.27804688 17.5767188 0.904746094 18.4570898 5.859375e-05 18.4570898 5.859375e-05 24.6079688 8.20318359 24.6079688"></polygon>
                    </g>
                    <path d="M17.1763867,12.28125 L17.1763867,12.28125 C17.1763867,14.0934375 15.7073242,15.5625 13.8951367,15.5625 L4.28125,15.5625 C2.4690625,15.5625 1,14.0934375 1,12.28125 L1,12.28125 C1,10.4690625 2.4690625,9 4.28125,9 L13.8951367,9 C15.7073242,9 17.1763867,10.4691211 17.1763867,12.28125 Z" id="路径" fill="#78A8FA"></path>
                    <path d="M16.7623242,6.21099609 L16.7623242,6.21099609 C16.7623242,8.02318359 15.2932617,9.49224609 13.4810742,9.49224609 L3.8671875,9.49224609 C2.055,9.49224609 0.5859375,8.02318359 0.5859375,6.21099609 L0.5859375,6.21099609 C0.5859375,4.39880859 2.055,2.92974609 3.8671875,2.92974609 L13.4810742,2.92974609 C15.2932617,2.92974609 16.7623242,4.39886719 16.7623242,6.21099609 Z" id="路径" fill="#AACFFF"></path>
                    <path d="M16.7623242,19.3359961 L16.7623242,19.3359961 C16.7623242,21.1481836 15.2932617,22.6172461 13.4810742,22.6172461 L3.8671875,22.6172461 C2.055,22.6172461 0.5859375,21.1481836 0.5859375,19.3359961 L0.5859375,19.3359961 C0.5859375,17.5238086 2.055,16.0547461 3.8671875,16.0547461 L13.4810742,16.0547461 C15.2932617,16.0547461 16.7623242,17.5238672 16.7623242,19.3359961 Z" id="路径" fill="#4B80F5"></path>
                    <path d="M27.2852344,27.6563086 L10.7998828,27.6563086 C10.5704883,27.0095508 9.97277344,26.5359375 9.26003906,26.4887695 L9.26003906,23.2031836 L12.1319531,23.2031836 L12.1319531,25.1939062 C12.1319531,25.5174609 12.3943359,25.7798437 12.7178906,25.7798437 L19.1211328,25.7798437 C19.4446875,25.7798437 19.7070703,25.5174609 19.7070703,25.1939062 C19.7070703,24.8703516 19.4446875,24.6079687 19.1211328,24.6079687 L13.3038281,24.6079687 L13.3038281,23.2031836 L13.4810742,23.2031836 C15.6134766,23.2031836 17.3482617,21.4683984 17.3482617,19.3359961 C17.3482617,17.9533594 16.618418,16.7385352 15.5242383,16.0547461 C16.4283398,15.4897266 17.0827734,14.5620117 17.2830469,13.4766211 L19.1211328,13.4766211 C19.4446875,13.4766211 19.7070703,13.2142383 19.7070703,12.8906836 C19.7070703,12.5671289 19.4446875,12.3047461 19.1211328,12.3047461 L17.3188477,12.3047461 C17.1748242,11.1191016 16.492793,10.0975195 15.5242383,9.49224609 C16.618418,8.80845703 17.3482617,7.59363281 17.3482617,6.21099609 C17.3482617,4.07859375 15.6134766,2.34380859 13.4810742,2.34380859 L13.3038281,2.34380859 L13.3038281,1.17193359 L16.7623242,1.17193359 C17.0858789,1.17193359 17.3482617,0.909550781 17.3482617,0.585996094 C17.3482617,0.262441406 17.0858789,5.859375e-05 16.7623242,5.859375e-05 L12.7178906,5.859375e-05 C12.3943359,5.859375e-05 12.1319531,0.262441406 12.1319531,0.585996094 L12.1319531,2.34380859 L3.8671875,2.34380859 C1.73478516,2.34380859 0,4.07865234 0,6.21099609 C0,7.59363281 0.72984375,8.80845703 1.82402344,9.49224609 C0.72984375,10.1760937 0,11.3908594 0,12.7734961 C0,14.1561328 0.72984375,15.370957 1.82402344,16.0547461 C0.72984375,16.7385937 0,17.9533594 0,19.3359961 C0,21.4683984 1.73478516,23.2031836 3.8671875,23.2031836 L8.08816406,23.2031836 L8.08816406,26.4887695 C7.37548828,26.5359375 6.77771484,27.0094922 6.54832031,27.6563086 L0.585996094,27.6563086 C0.262441406,27.6563086 0,27.9186914 0,28.2422461 C0,28.5658008 0.262441406,28.8281836 0.585996094,28.8281836 L6.54832031,28.8281836 C6.79019531,29.5101562 7.44146484,30.0000586 8.20535156,30.0000586 L9.14285156,30.0000586 C9.90667969,30.0000586 10.5580078,29.5101562 10.7998828,28.8281836 L27.2852344,28.8281836 C27.6087891,28.8281836 27.8711719,28.5658008 27.8711719,28.2422461 C27.8711719,27.9186914 27.6087891,27.6563086 27.2852344,27.6563086 Z M1.171875,6.21099609 C1.171875,4.72482422 2.38101563,3.51568359 3.8671875,3.51568359 L13.4810742,3.51568359 C14.9672461,3.51568359 16.1763867,4.72482422 16.1763867,6.21099609 C16.1763867,7.69716797 14.9672461,8.90630859 13.4810742,8.90630859 L3.8671875,8.90630859 C2.38101563,8.90630859 1.171875,7.69722656 1.171875,6.21099609 Z M1.171875,12.7734961 C1.171875,11.2873242 2.38101563,10.0781836 3.8671875,10.0781836 L13.4810742,10.0781836 C14.9672461,10.0781836 16.1763867,11.2873242 16.1763867,12.7734961 C16.1763867,14.259668 14.9672461,15.4688086 13.4810742,15.4688086 L3.8671875,15.4688086 C2.38101563,15.4688086 1.171875,14.2597266 1.171875,12.7734961 Z M1.171875,19.3359961 C1.171875,17.8498242 2.38101563,16.6406836 3.8671875,16.6406836 L13.4810742,16.6406836 C14.9672461,16.6406836 16.1763867,17.8498242 16.1763867,19.3359961 C16.1763867,20.822168 14.9672461,22.0313086 13.4810742,22.0313086 L3.8671875,22.0313086 C2.38101563,22.0313086 1.171875,20.8222266 1.171875,19.3359961 Z M9.14285156,28.8281836 L8.20535156,28.8281836 C7.88226563,28.8281836 7.61941406,28.565332 7.61941406,28.2422461 C7.61941406,27.9191602 7.88226563,27.6563086 8.20535156,27.6563086 L9.14285156,27.6563086 C9.4659375,27.6563086 9.72878906,27.9191602 9.72878906,28.2422461 C9.72878906,28.565332 9.4659375,28.8281836 9.14285156,28.8281836 Z" id="形状" fill="#000000"></path>
                    <path d="M29.4141211,27.6563086 C29.2600195,27.6563086 29.1088477,27.7189453 28.9998633,27.8279883 C28.8908789,27.9370313 28.8281836,28.0881445 28.8281836,28.2422461 C28.8281836,28.3963477 28.8908203,28.5475195 28.9998633,28.6564453 C29.1088477,28.7654297 29.2600195,28.8281836 29.4141211,28.8281836 C29.5682227,28.8281836 29.7193945,28.7654883 29.8283203,28.6564453 C29.9373047,28.5475195 30.0000586,28.3963477 30.0000586,28.2422461 C30.0000586,28.0881445 29.9373633,27.9369727 29.8283203,27.8279883 C29.7193945,27.7190039 29.5682227,27.6563086 29.4141211,27.6563086 Z" id="路径" fill="#000000"></path>
                    <path d="M29.4141211,0.880488281 L26.4903516,0.880488281 L26.268457,0.357304688 C26.1766406,0.140742188 25.9642383,5.859375e-05 25.7289844,5.859375e-05 L22.4889258,5.859375e-05 C22.2536719,5.859375e-05 22.0412695,0.140683594 21.9494531,0.357304688 L21.7276172,0.880488281 L21.2109961,0.880488281 C20.8874414,0.880488281 20.6250586,1.14287109 20.6250586,1.46642578 L20.6250586,7.61724609 C20.6250586,7.94080078 20.8874414,8.20318359 21.2109961,8.20318359 L29.4141211,8.20318359 C29.7376758,8.20318359 30.0000586,7.94080078 30.0000586,7.61724609 L30.0000586,1.46642578 C30.0000586,1.1428125 29.7376758,0.880488281 29.4141211,0.880488281 Z M28.8281836,7.03130859 L21.7969336,7.03130859 L21.7969336,2.05236328 L22.115625,2.05236328 C22.3508789,2.05236328 22.5632812,1.91173828 22.6550977,1.69511719 L22.8769922,1.17193359 L25.3410352,1.17193359 L25.5628711,1.69511719 C25.6546875,1.91167969 25.8670898,2.05236328 26.1023437,2.05236328 L28.8281836,2.05236328 L28.8281836,7.03130859 Z" id="形状" fill="#000000"></path>
                    <path d="M29.4141211,9.55236328 L26.4903516,9.55236328 L26.268457,9.02917969 C26.1766992,8.81261719 25.9642969,8.67193359 25.729043,8.67193359 L22.4889844,8.67193359 C22.2537305,8.67193359 22.0413281,8.81255859 21.9495117,9.02917969 L21.7276758,9.55236328 L21.2110547,9.55236328 C20.8875,9.55236328 20.6251172,9.81474609 20.6251172,10.1383008 L20.6251172,16.2891211 C20.6251172,16.6126758 20.8875,16.8750586 21.2110547,16.8750586 L29.4141797,16.8750586 C29.7377344,16.8750586 30.0001172,16.6126758 30.0001172,16.2891211 L30.0001172,10.1383008 C30.0001172,9.8146875 29.7376758,9.55236328 29.4141211,9.55236328 Z M28.8281836,15.7031836 L21.7969336,15.7031836 L21.7969336,10.7241797 L22.115625,10.7241797 C22.3508789,10.7241797 22.5632812,10.5835547 22.6550977,10.3669336 L22.8769336,9.84375 L25.3409766,9.84375 L25.5628125,10.3669336 C25.6546289,10.5834961 25.8670312,10.7241797 26.1022852,10.7241797 L28.8281836,10.7241797 L28.8281836,15.7031836 L28.8281836,15.7031836 Z" id="形状" fill="#000000"></path>
                    <path d="M29.4141211,18.4570898 L26.4903516,18.4570898 L26.268457,17.9339062 C26.1766992,17.7173437 25.9642969,17.5766602 25.729043,17.5766602 L22.4889844,17.5766602 C22.2537305,17.5766602 22.0413281,17.7172852 21.9495117,17.9339062 L21.7276172,18.4570898 L21.2109961,18.4570898 C20.8874414,18.4570898 20.6250586,18.7194727 20.6250586,19.0430273 L20.6250586,25.1939063 C20.6250586,25.5174609 20.8874414,25.7798438 21.2109961,25.7798438 L29.4141211,25.7798438 C29.7376758,25.7798438 30.0000586,25.5174609 30.0000586,25.1939063 L30.0000586,19.0430273 C30.0000586,18.7194727 29.7376758,18.4570898 29.4141211,18.4570898 Z M28.8281836,24.6079688 L21.7969336,24.6079688 L21.7969336,19.6289648 L22.115625,19.6289648 C22.3508789,19.6289648 22.5632812,19.4883398 22.6550977,19.2717187 L22.8769336,18.7485352 L25.3409766,18.7485352 L25.5628125,19.2717187 C25.6546289,19.4882812 25.8670312,19.6289648 26.1022852,19.6289648 L28.8281836,19.6289648 L28.8281836,24.6079688 L28.8281836,24.6079688 Z" id="形状" fill="#000000"></path>
                    <path d="M14.1728906,19.4531836 C14.1728906,19.1296289 13.9105078,18.8672461 13.5869531,18.8672461 L11.8487695,18.8672461 C11.5252148,18.8672461 11.262832,19.1296289 11.262832,19.4531836 C11.262832,19.7767383 11.5252148,20.0391211 11.8487695,20.0391211 L13.5869531,20.0391211 C13.9105078,20.0391211 14.1728906,19.7767969 14.1728906,19.4531836 Z" id="路径" fill="#000000"></path>
                    <path d="M6.45533203,18.8672461 C6.30123047,18.8672461 6.15005859,18.9298828 6.04107422,19.0389258 C5.93214844,19.1479102 5.86939453,19.299082 5.86939453,19.4531836 C5.86939453,19.6072852 5.93208984,19.758457 6.04107422,19.8673828 C6.15005859,19.9763672 6.30123047,20.0391211 6.45533203,20.0391211 C6.61001953,20.0391211 6.76060547,19.9764258 6.86958984,19.8673828 C6.97910156,19.758457 7.04179687,19.6072852 7.04179687,19.4531836 C7.04179687,19.299082 6.97910156,19.1479102 6.86958984,19.0389258 C6.76060547,18.9299414 6.61001953,18.8672461 6.45533203,18.8672461 Z" id="路径" fill="#000000"></path>
                    <path d="M9.15767578,18.8672461 C9.00292969,18.8672461 8.85240234,18.9298828 8.74341797,19.0389258 C8.63443359,19.1479688 8.57173828,19.299082 8.57173828,19.4531836 C8.57173828,19.6072852 8.634375,19.758457 8.74341797,19.8673828 C8.85240234,19.9763672 9.00298828,20.0391211 9.15767578,20.0391211 C9.31177734,20.0391211 9.46294922,19.9764258 9.571875,19.8673828 C9.68085937,19.758457 9.74361328,19.6072852 9.74361328,19.4531836 C9.74361328,19.299082 9.68091797,19.1479102 9.571875,19.0389258 C9.46294922,18.9299414 9.31177734,18.8672461 9.15767578,18.8672461 Z" id="路径" fill="#000000"></path>
                    <path d="M4.16021484,18.8672461 C4.00611328,18.8672461 3.85494141,18.9298828 3.74595703,19.0389258 C3.63697266,19.1479688 3.57427734,19.299082 3.57427734,19.4531836 C3.57427734,19.6072852 3.63691406,19.758457 3.74595703,19.8673828 C3.85494141,19.9763672 4.00611328,20.0391211 4.16021484,20.0391211 C4.31431641,20.0391211 4.46548828,19.9764258 4.57441406,19.8673828 C4.68339844,19.758457 4.74615234,19.6072852 4.74615234,19.4531836 C4.74615234,19.299082 4.68345703,19.1479102 4.57441406,19.0389258 C4.46548828,18.9299414 4.31431641,18.8672461 4.16021484,18.8672461 Z" id="路径" fill="#000000"></path>
                    <path d="M14.1728906,12.8906836 C14.1728906,12.5671289 13.9105078,12.3047461 13.5869531,12.3047461 L11.8487695,12.3047461 C11.5252148,12.3047461 11.262832,12.5671289 11.262832,12.8906836 C11.262832,13.2142383 11.5252148,13.4766211 11.8487695,13.4766211 L13.5869531,13.4766211 C13.9105078,13.4766211 14.1728906,13.2142969 14.1728906,12.8906836 Z" id="路径" fill="#000000"></path>
                    <path d="M6.45533203,12.3047461 C6.30123047,12.3047461 6.15005859,12.3673828 6.04107422,12.4764258 C5.93214844,12.5854102 5.86939453,12.736582 5.86939453,12.8906836 C5.86939453,13.0447852 5.93208984,13.195957 6.04107422,13.3048828 C6.15005859,13.4138672 6.30123047,13.4766211 6.45533203,13.4766211 C6.61001953,13.4766211 6.76060547,13.4139258 6.86958984,13.3048828 C6.97910156,13.195957 7.04179687,13.0447852 7.04179687,12.8906836 C7.04179687,12.736582 6.97910156,12.5854102 6.86958984,12.4764258 C6.76060547,12.3674414 6.61001953,12.3047461 6.45533203,12.3047461 Z" id="路径" fill="#000000"></path>
                    <path d="M9.15767578,12.3047461 C9.00292969,12.3047461 8.85240234,12.3673828 8.74341797,12.4764258 C8.63443359,12.5854688 8.57173828,12.736582 8.57173828,12.8906836 C8.57173828,13.0447852 8.634375,13.195957 8.74341797,13.3048828 C8.85240234,13.4138672 9.00298828,13.4766211 9.15767578,13.4766211 C9.31177734,13.4766211 9.46294922,13.4139258 9.571875,13.3048828 C9.68085937,13.195957 9.74361328,13.0447852 9.74361328,12.8906836 C9.74361328,12.736582 9.68091797,12.5854102 9.571875,12.4764258 C9.46294922,12.3674414 9.31177734,12.3047461 9.15767578,12.3047461 Z" id="路径" fill="#000000"></path>
                    <path d="M4.16021484,12.3047461 C4.00611328,12.3047461 3.85494141,12.3673828 3.74595703,12.4764258 C3.63697266,12.5854688 3.57427734,12.736582 3.57427734,12.8906836 C3.57427734,13.0447852 3.63691406,13.195957 3.74595703,13.3048828 C3.85494141,13.4138672 4.00611328,13.4766211 4.16021484,13.4766211 C4.31431641,13.4766211 4.46548828,13.4139258 4.57441406,13.3048828 C4.68339844,13.195957 4.74615234,13.0447852 4.74615234,12.8906836 C4.74615234,12.736582 4.68345703,12.5854102 4.57441406,12.4764258 C4.46548828,12.3674414 4.31431641,12.3047461 4.16021484,12.3047461 Z" id="路径" fill="#000000"></path>
                    <path d="M14.1728906,6.32818359 C14.1728906,6.00462891 13.9105078,5.74224609 13.5869531,5.74224609 L11.8487695,5.74224609 C11.5252148,5.74224609 11.262832,6.00462891 11.262832,6.32818359 C11.262832,6.65173828 11.5252148,6.91412109 11.8487695,6.91412109 L13.5869531,6.91412109 C13.9105078,6.91412109 14.1728906,6.65179688 14.1728906,6.32818359 Z" id="路径" fill="#000000"></path>
                    <path d="M6.45533203,5.74224609 C6.30123047,5.74224609 6.15005859,5.80488281 6.04107422,5.91392578 C5.93214844,6.02291016 5.86939453,6.17408203 5.86939453,6.32818359 C5.86939453,6.48228516 5.93208984,6.63345703 6.04107422,6.74238281 C6.15005859,6.85136719 6.30123047,6.91412109 6.45533203,6.91412109 C6.61001953,6.91412109 6.76060547,6.85142578 6.86958984,6.74238281 C6.97910156,6.63345703 7.04179687,6.48228516 7.04179687,6.32818359 C7.04179687,6.17408203 6.97910156,6.02291016 6.86958984,5.91392578 C6.76060547,5.80494141 6.61001953,5.74224609 6.45533203,5.74224609 Z" id="路径" fill="#000000"></path>
                    <path d="M4.16021484,5.74224609 C4.00611328,5.74224609 3.85494141,5.80488281 3.74595703,5.91392578 C3.63697266,6.02296875 3.57427734,6.17408203 3.57427734,6.32818359 C3.57427734,6.48228516 3.63691406,6.63345703 3.74595703,6.74238281 C3.85494141,6.85136719 4.00611328,6.91412109 4.16021484,6.91412109 C4.31431641,6.91412109 4.46548828,6.85142578 4.57441406,6.74238281 C4.68339844,6.63345703 4.74615234,6.48228516 4.74615234,6.32818359 C4.74615234,6.17408203 4.68345703,6.02291016 4.57441406,5.91392578 C4.46548828,5.80494141 4.31431641,5.74224609 4.16021484,5.74224609 Z" id="路径" fill="#000000"></path>
                    <path d="M9.15767578,5.74224609 C9.00292969,5.74224609 8.85240234,5.80488281 8.74341797,5.91392578 C8.63443359,6.02296875 8.57173828,6.17408203 8.57173828,6.32818359 C8.57173828,6.48228516 8.634375,6.63345703 8.74341797,6.74238281 C8.85240234,6.85136719 9.00298828,6.91412109 9.15767578,6.91412109 C9.31177734,6.91412109 9.46294922,6.85142578 9.571875,6.74238281 C9.68085937,6.63345703 9.74361328,6.48228516 9.74361328,6.32818359 C9.74361328,6.17408203 9.68091797,6.02291016 9.571875,5.91392578 C9.46294922,5.80494141 9.31177734,5.74224609 9.15767578,5.74224609 Z" id="路径" fill="#000000"></path>
                    <path d="M19.120957,1.17193359 C19.2750586,1.17193359 19.4262305,1.10923828 19.5351562,1.00019531 C19.6447266,0.891269531 19.7068945,0.740097656 19.7068945,0.585996094 C19.7068945,0.431894531 19.6447266,0.280722656 19.5351562,0.171738281 C19.4262305,0.0627539063 19.2755859,5.859375e-05 19.120957,5.859375e-05 C18.9668555,5.859375e-05 18.8156836,0.0626953125 18.7066992,0.171738281 C18.5977148,0.28078125 18.5350195,0.431894531 18.5350195,0.585996094 C18.5350195,0.740097656 18.5976562,0.891269531 18.7066992,1.00019531 C18.8156836,1.10923828 18.9668555,1.17193359 19.120957,1.17193359 Z" id="路径" fill="#000000"></path>
                </g>
            </g>
        </g>
    </g>
</svg>