<?xml version="1.0" encoding="UTF-8"?>
<svg width="30px" height="30px" viewBox="0 0 30 30" version="1.1" xmlns="http://www.w3.org/2000/svg" xmlns:xlink="http://www.w3.org/1999/xlink">
    <!-- Generator: Sketch 63.1 (92452) - https://sketch.com -->
    <title>user</title>
    <desc>Created with Sketch.</desc>
    <g id="测试-计划" stroke="none" stroke-width="1" fill="none" fill-rule="evenodd">
        <g id="测试-测试报告-MVP" transform="translate(-316.000000, -218.000000)" fill-rule="nonzero">
            <g id="编组-4" transform="translate(316.000000, 214.000000)">
                <g id="user" transform="translate(0.000000, 4.000000)">
                    <path d="M22.2158203,7.63857422 L23.2767773,7.29574219 C23.5414453,7.51007812 23.8400977,7.68404297 24.163418,7.8084375 L24.3970313,8.89892578 L26.2867969,8.89892578 L26.5204102,7.8084375 C26.8437305,7.68410156 27.1423242,7.51007812 27.4070508,7.29574219 L28.4680078,7.63857422 L29.4141211,6.00257813 L28.5860156,5.25457031 C28.6121484,5.08769531 28.6258594,4.91666016 28.6258594,4.74240234 C28.6258594,4.56814453 28.6121484,4.39716797 28.5860156,4.23023438 L29.4141211,3.48228516 L28.4679492,1.84628906 L27.4069922,2.18912109 C27.1423242,1.97478516 26.8436719,1.80082031 26.5203516,1.67642578 L26.2867383,0.5859375 L24.3969727,0.5859375 L24.1633594,1.67642578 C23.8400391,1.80076172 23.5414453,1.97478516 23.2767188,2.18912109 L22.2157617,1.84628906 L21.2695898,3.48228516 L22.0976953,4.23029297 C22.0715625,4.39716797 22.0578516,4.56820313 22.0578516,4.74246094 C22.0578516,4.91671875 22.0715625,5.08769531 22.0976953,5.25462891 L21.2695898,6.00257812 L22.2158203,7.63857422 Z" id="路径" fill="#FF5A5A"></path>
                    <path d="M15.0001172,17.4219141 L15.0001172,17.4219141 C12.4362305,17.4219141 10.357793,15.3434766 10.357793,12.7795898 L10.357793,9.63451172 C10.357793,7.070625 12.4362305,4.9921875 15.0001172,4.9921875 L15.0001172,4.9921875 C17.5640039,4.9921875 19.6424414,7.070625 19.6424414,9.63451172 L19.6424414,12.7795898 C19.6424414,15.3434766 17.5639453,17.4219141 15.0001172,17.4219141 Z" id="路径" fill="#FFE6C3"></path>
                    <path d="M19.6423828,10.4379492 L19.6423828,9.63451172 C19.6423828,7.070625 17.5639453,4.9921875 15.0000586,4.9921875 L15.0000586,4.9921875 C12.4361719,4.9921875 10.3577344,7.070625 10.3577344,9.63451172 L10.3577344,10.7735156 L12.0411914,10.7735156 C13.5319922,10.7735156 14.913457,9.99099609 15.6799219,8.71230469 L15.6799219,8.71230469 L16.6042383,9.62021484 C17.3568164,10.359375 18.3694922,10.7735742 19.4243555,10.7735742 L19.6423828,10.4379492 Z" id="路径" fill="#F5B955"></path>
                    <path d="M26.2475391,29.4141211 L26.2475391,24.4180664 C26.2475391,22.6289648 25.0476563,21.0621094 23.3203711,20.5957617 L23.3203711,20.5957617 L6.67974609,20.5957617 L6.67974609,20.5957617 C4.95246094,21.0621094 3.75257813,22.6289648 3.75257813,24.4180664 L3.75257813,29.4141211 L26.2475391,29.4141211 Z" id="路径" fill="#3B77E6"></path>
                    <path d="M20.3614453,18.6328711 L9.63873047,18.6328711 C8.00455078,18.6328711 6.67974609,19.9576172 6.67974609,21.5917969 L6.67974609,29.4141211 L23.3203711,29.4141211 L23.3203711,21.5917969 C23.3203711,19.9576172 21.995625,18.6328711 20.3614453,18.6328711 Z" id="路径" fill="#B7D1FF"></path>
                    <circle id="椭圆形" fill="#FFFFFF" cx="15.0000586" cy="24.0234375" r="1.640625"></circle>
                    <path d="M15.0000586,21.7969336 C13.7723437,21.7969336 12.7734961,22.7957813 12.7734961,24.0234961 C12.7734961,25.2512109 13.7723437,26.2500586 15.0000586,26.2500586 C16.2277734,26.2500586 17.2266211,25.2512109 17.2266211,24.0234961 C17.2266211,22.7957813 16.227832,21.7969336 15.0000586,21.7969336 Z M15.0000586,25.0781836 C14.4185156,25.0781836 13.9453711,24.6050391 13.9453711,24.0234961 C13.9453711,23.4419531 14.4185156,22.9688086 15.0000586,22.9688086 C15.5816016,22.9688086 16.0547461,23.4419531 16.0547461,24.0234961 C16.0547461,24.6050391 15.5816016,25.0781836 15.0000586,25.0781836 Z" id="形状" fill="#000000"></path>
                    <path d="M15.0000586,18.0079102 C17.8829297,18.0079102 20.2283203,15.6625195 20.2283203,12.7796484 L20.2283203,9.63451172 C20.2283203,6.75164062 17.8829883,4.40625 15.0000586,4.40625 C12.1171289,4.40625 9.77179687,6.75164062 9.77179687,9.63451172 L9.77179687,12.7796484 C9.77179687,15.6625195 12.1171875,18.0079102 15.0000586,18.0079102 Z M15.0000586,5.578125 C17.2367578,5.578125 19.0564453,7.3978125 19.0564453,9.63451172 L19.0564453,10.1557617 C18.2578125,10.0527539 17.5171289,9.69550781 16.9337109,9.12246094 L16.0905469,8.29429687 C15.9624023,8.16849609 15.7839844,8.1084375 15.605625,8.13111328 C15.4275586,8.15390625 15.2697656,8.25703125 15.1773633,8.41107422 C14.5204687,9.50689453 13.3187695,10.1876367 12.0411914,10.1876367 L10.9437305,10.1876367 L10.9437305,9.63457031 C10.9437305,7.3978125 12.763418,5.578125 15.0000586,5.578125 Z M10.9437305,11.3594531 L12.0411914,11.3594531 C13.4820703,11.3594531 14.8498242,10.7037891 15.7586719,9.61095703 L16.1124609,9.95847656 C16.9167773,10.7484961 17.9480273,11.2280273 19.0563867,11.3360156 L19.0563867,12.7795898 C19.0563867,15.0162891 17.2366992,16.8359766 15,16.8359766 C12.7633008,16.8359766 10.9436133,15.0162891 10.9436133,12.7795898 L10.9436133,11.3594531 L10.9437305,11.3594531 L10.9437305,11.3594531 Z" id="形状" fill="#000000"></path>
                    <path d="M28.0118555,28.8281836 L26.8335352,28.8281836 L26.8335352,24.4180664 C26.8335352,22.3972852 25.4895117,20.6155664 23.5550977,20.0540625 C22.9814062,18.8674219 21.7654688,18.0469336 20.3615039,18.0469336 L9.63867188,18.0469336 C8.23464844,18.0469336 7.01876953,18.8674219 6.44507813,20.0540625 C4.51066406,20.6155664 3.16664063,22.3972852 3.16664063,24.4180664 L3.16664063,28.8281836 L1.98832031,28.8281836 C1.66476563,28.8281836 1.40238281,29.0905078 1.40238281,29.4141211 C1.40238281,29.7377344 1.66476563,30.0000586 1.98832031,30.0000586 L28.0118555,30.0000586 C28.3354102,30.0000586 28.597793,29.7377344 28.597793,29.4141211 C28.597793,29.0905078 28.3354102,28.8281836 28.0118555,28.8281836 Z M25.6616016,24.4180664 L25.6616016,28.8281836 L23.9063086,28.8281836 L23.9063086,21.5918555 C23.9063086,21.5467383 23.9046094,21.5020313 23.9029102,21.4573242 C24.9669727,22.03875 25.6616016,23.1666211 25.6616016,24.4180664 Z M4.33851563,24.4180664 C4.33851563,23.1666211 5.03320313,22.03875 6.09720703,21.4572656 C6.09550781,21.5019727 6.09380859,21.5466797 6.09380859,21.5917969 L6.09380859,28.828125 L4.33851563,28.828125 L4.33851563,24.4180664 Z M9.60984375,28.8281836 L9.60984375,26.1133594 C9.60984375,25.7897461 9.34746094,25.5274219 9.02390625,25.5274219 C8.70035156,25.5274219 8.43796875,25.7897461 8.43796875,26.1133594 L8.43796875,28.8281836 L7.26568359,28.8281836 L7.26568359,21.5918555 C7.26568359,20.2833398 8.33021484,19.2188086 9.63867188,19.2188086 L20.3614453,19.2188086 C21.6699023,19.2188086 22.7344336,20.2833398 22.7344336,21.5918555 L22.7344336,28.8281836 L9.60984375,28.8281836 Z" id="形状" fill="#000000"></path>
                    <path d="M1.69060547,4.34390625 C1.80503906,4.45833984 1.95498047,4.51552734 2.10492188,4.51552734 C2.25486328,4.51552734 2.40480469,4.45828125 2.51923828,4.34390625 C2.74804688,4.11509766 2.74804688,3.74408203 2.51923828,3.51527344 L1.4146875,2.41072266 L2.51929688,1.30611328 C2.74810547,1.07730469 2.74810547,0.706289062 2.51929688,0.477421875 C2.29042969,0.248671875 1.91953125,0.248671875 1.69060547,0.477421875 L0.171679688,1.99634766 C0.0618164063,2.10626953 5.859375e-05,2.25527344 5.859375e-05,2.41072266 C5.859375e-05,2.56617188 0.0618164063,2.71517578 0.171679688,2.82503906 L1.69060547,4.34390625 Z" id="路径" fill="#000000"></path>
                    <path d="M7.1634375,4.34390625 C7.27787109,4.45833984 7.4278125,4.51552734 7.57775391,4.51552734 C7.72769531,4.51552734 7.87763672,4.45828125 7.99207031,4.34390625 L9.5109375,2.82503906 C9.73974609,2.59623047 9.73974609,2.22527344 9.5109375,1.99640625 L7.99212891,0.477480469 C7.76337891,0.248671875 7.39248047,0.248671875 7.1634375,0.477480469 C6.93462891,0.706289062 6.93462891,1.07730469 7.1634375,1.30611328 L8.26804688,2.41072266 L7.1634375,3.51533203 C6.93462891,3.74408203 6.93462891,4.11509766 7.1634375,4.34390625 Z" id="路径" fill="#000000"></path>
                    <path d="M3.47214844,4.74052734 C3.56542969,4.7953125 3.66755859,4.82138672 3.76845703,4.82138672 C3.969375,4.82138672 4.16507813,4.71796875 4.27417969,4.53222656 L6.41888672,0.882832031 C6.58289063,0.603808594 6.48960938,0.244746094 6.21058594,0.0808007812 C5.9315625,-0.0830859375 5.5725,0.0101367187 5.40855469,0.289101562 L3.26390625,3.93849609 C3.09990234,4.21751953 3.19318359,4.57658203 3.47214844,4.74052734 Z" id="路径" fill="#000000"></path>
                    <path d="M20.7624023,6.29595703 L21.7085742,7.93195312 C21.8467969,8.17095703 22.1330859,8.28105469 22.3959375,8.19615234 L23.1703125,7.94589844 C23.3245898,8.05066406 23.485957,8.14400391 23.653418,8.22527344 L23.8239844,9.0215625 C23.881875,9.29173828 24.1206445,9.48480469 24.3969141,9.48480469 L26.2866797,9.48480469 C26.5630078,9.48480469 26.8017187,9.29179687 26.8596094,9.0215625 L27.0301758,8.22527344 C27.1976367,8.14400391 27.3590039,8.05066406 27.5132812,7.94589844 L28.2876563,8.19615234 C28.5505664,8.28105469 28.8367969,8.17095703 28.9750195,7.93195312 L29.9211914,6.29595703 C30.0595898,6.05666016 30.0118945,5.75314453 29.8067578,5.5678125 L29.2016602,5.02125 C29.2082813,4.92837891 29.2116797,4.83527344 29.2116797,4.74246094 C29.2116797,4.64964844 29.2082813,4.55654297 29.2016602,4.46367187 L29.8067578,3.91710937 C30.0118945,3.73177734 30.0595898,3.42826172 29.9211914,3.18896484 L28.9750195,1.55296875 C28.8367969,1.31396484 28.5505664,1.20386719 28.2876563,1.28876953 L27.5132812,1.53902344 C27.3590039,1.43425781 27.1976367,1.34091797 27.0301758,1.25964844 L26.8596094,0.463359375 C26.8017187,0.193183594 26.5629492,0.0001171875 26.2866797,0.0001171875 L24.3969141,0.0001171875 C24.1205859,0.0001171875 23.881875,0.193125 23.8239844,0.463359375 L23.653418,1.25964844 C23.485957,1.34091797 23.3245898,1.43425781 23.1703125,1.53902344 L22.3959375,1.28876953 C22.1330859,1.20380859 21.8467969,1.31396484 21.7085742,1.55296875 L20.7624023,3.18896484 C20.6240039,3.42826172 20.6716992,3.73177734 20.8768359,3.91710937 L21.4819336,4.46367187 C21.4753125,4.55654297 21.4719141,4.64964844 21.4719141,4.74246094 C21.4719141,4.83527344 21.4753125,4.92837891 21.4819336,5.02125 L20.8768359,5.5678125 C20.6716992,5.75314453 20.6240039,6.05660156 20.7624023,6.29595703 Z M22.6766016,5.16386719 C22.6548633,5.02511719 22.6437891,4.88332031 22.6437891,4.74240234 C22.6437891,4.60148438 22.6548047,4.4596875 22.6766016,4.3209375 C22.7071289,4.12558594 22.637168,3.92794922 22.4904492,3.79541016 L22.0141406,3.36521484 L22.4860547,2.54935547 L23.0966016,2.74669922 C23.2851562,2.80763672 23.491582,2.76919922 23.6455078,2.64451172 C23.8657031,2.46621094 24.1106836,2.32453125 24.3737695,2.22333984 C24.5585156,2.15226563 24.6948633,1.99271484 24.7363477,1.79917969 L24.8707031,1.17193359 L25.8130078,1.17193359 L25.9473633,1.79917969 C25.9888477,1.99271484 26.1251953,2.15226563 26.3099414,2.22333984 C26.5729687,2.32453125 26.8180078,2.46621094 27.0382031,2.64451172 C27.1921289,2.76914063 27.3985547,2.80751953 27.5871094,2.74669922 L28.1976562,2.54935547 L28.6695703,3.36521484 L28.1932617,3.79541016 C28.046543,3.92794922 27.976582,4.12558594 28.0071094,4.3209375 C28.0288477,4.4596875 28.0399219,4.60148438 28.0399219,4.74240234 C28.0399219,4.88332031 28.0289062,5.02511719 28.0071094,5.16386719 C27.976582,5.35921875 28.046543,5.55685547 28.1932617,5.68939453 L28.6695703,6.11958984 L28.1976562,6.93544922 L27.5871094,6.73810547 C27.3987305,6.67728516 27.1921289,6.71566406 27.0382031,6.84029297 C26.8180078,7.01859375 26.5730273,7.16027344 26.3099414,7.26146484 C26.1251953,7.33253906 25.9888477,7.49208984 25.9473633,7.685625 L25.8130078,8.31287109 L24.8707031,8.31287109 L24.7363477,7.685625 C24.6948633,7.49208984 24.5585156,7.33253906 24.3737695,7.26146484 C24.1107422,7.16027344 23.8657031,7.01859375 23.6455078,6.84029297 C23.491582,6.71560547 23.2849805,6.67716797 23.0966016,6.73810547 L22.4860547,6.93544922 L22.0141406,6.11958984 L22.4904492,5.68939453 C22.637168,5.55685547 22.7071875,5.35921875 22.6766016,5.16386719 Z" id="形状" fill="#000000"></path>
                    <path d="M0.585996094,8.07861328 L5.15513672,8.07861328 C5.47869141,8.07861328 5.74107422,7.81628906 5.74107422,7.49267578 C5.74107422,7.1690625 5.47869141,6.90673828 5.15513672,6.90673828 L0.585996094,6.90673828 C0.262441406,6.90673828 5.859375e-05,7.1690625 5.859375e-05,7.49267578 C5.859375e-05,7.81628906 0.262441406,8.07861328 0.585996094,8.07861328 Z" id="路径" fill="#000000"></path>
                    <path d="M7.17146484,8.07861328 L8.58679688,8.07861328 C8.91035156,8.07861328 9.17273438,7.81628906 9.17273438,7.49267578 C9.17273438,7.1690625 8.91035156,6.90673828 8.58679688,6.90673828 L7.17146484,6.90673828 C6.84791016,6.90673828 6.58552734,7.1690625 6.58552734,7.49267578 C6.58552734,7.81628906 6.84791016,8.07861328 7.17146484,8.07861328 Z" id="路径" fill="#000000"></path>
                    <path d="M4.10162109,13.1175 C4.10162109,12.7938867 3.83923828,12.5315625 3.51568359,12.5315625 L0.585996094,12.5315625 C0.262441406,12.5315625 5.859375e-05,12.7938867 5.859375e-05,13.1175 C5.859375e-05,13.4411133 0.262441406,13.7034375 0.585996094,13.7034375 L3.51568359,13.7034375 C3.83929687,13.7034375 4.10162109,13.4411133 4.10162109,13.1175 Z" id="路径" fill="#000000"></path>
                    <path d="M8.13111328,12.5315625 L5.55972656,12.5315625 C5.23617187,12.5315625 4.97378906,12.7938867 4.97378906,13.1175 C4.97378906,13.4411133 5.23617187,13.7034375 5.55972656,13.7034375 L8.13111328,13.7034375 C8.45466797,13.7034375 8.71705078,13.4411133 8.71705078,13.1175 C8.71705078,12.7938867 8.45466797,12.5315625 8.13111328,12.5315625 Z" id="路径" fill="#000000"></path>
                    <path d="M0.585996094,10.8909961 L1.34542969,10.8909961 C1.66898438,10.8909961 1.93136719,10.6286719 1.93136719,10.3050586 C1.93136719,9.98144531 1.66898438,9.71912109 1.34542969,9.71912109 L0.585996094,9.71912109 C0.262441406,9.71912109 5.859375e-05,9.98144531 5.859375e-05,10.3050586 C5.859375e-05,10.6286719 0.262441406,10.8909961 0.585996094,10.8909961 Z" id="路径" fill="#000000"></path>
                    <path d="M8.13111328,9.71912109 L3.33990234,9.71912109 C3.01634766,9.71912109 2.75396484,9.98144531 2.75396484,10.3050586 C2.75396484,10.6286719 3.01634766,10.8909961 3.33990234,10.8909961 L8.13111328,10.8909961 C8.45466797,10.8909961 8.71705078,10.6286719 8.71705078,10.3050586 C8.71705078,9.98144531 8.45466797,9.71912109 8.13111328,9.71912109 Z" id="路径" fill="#000000"></path>
                    <path d="M29.4141211,18.0463477 C29.2600195,18.0463477 29.1088477,18.108457 28.9998633,18.2180273 C28.8908789,18.3270117 28.8281836,18.4781836 28.8281836,18.6322852 C28.8281836,18.7863867 28.8908203,18.9375586 28.9998633,19.046543 C29.1088477,19.1555273 29.2600195,19.2182227 29.4141211,19.2182227 C29.5682227,19.2182227 29.7193945,19.1555273 29.8283203,19.046543 C29.9373047,18.9375586 30.0000586,18.7863867 30.0000586,18.6322852 C30.0000586,18.4775977 29.9373633,18.3270117 29.8283203,18.2180273 C29.7193945,18.108457 29.5682227,18.0463477 29.4141211,18.0463477 Z" id="路径" fill="#000000"></path>
                    <path d="M24.4389258,19.2188086 L27.3242578,19.2188086 C27.6478125,19.2188086 27.9101953,18.9564844 27.9101953,18.6328711 C27.9101953,18.3092578 27.6478125,18.0469336 27.3242578,18.0469336 L24.4389258,18.0469336 C24.1153711,18.0469336 23.8529883,18.3092578 23.8529883,18.6328711 C23.8529883,18.9564844 24.1153711,19.2188086 24.4389258,19.2188086 Z" id="路径" fill="#000000"></path>
                    <path d="M24.2149219,15.8200781 C24.2149219,15.4964648 23.9525391,15.2341406 23.6289844,15.2341406 L22.1289844,15.2341406 C21.8054297,15.2341406 21.5430469,15.4964648 21.5430469,15.8200781 C21.5430469,16.1436914 21.8054297,16.4060156 22.1289844,16.4060156 L23.6289844,16.4060156 C23.9525977,16.4060156 24.2149219,16.1436914 24.2149219,15.8200781 Z" id="路径" fill="#000000"></path>
                    <path d="M30.0000586,15.8200781 C30.0000586,15.4964648 29.7376758,15.2341406 29.4141211,15.2341406 L25.9389258,15.2341406 C25.6153711,15.2341406 25.3529883,15.4964648 25.3529883,15.8200781 C25.3529883,16.1436914 25.6153711,16.4060156 25.9389258,16.4060156 L29.4141211,16.4060156 C29.7377344,16.4060156 30.0000586,16.1436914 30.0000586,15.8200781 Z" id="路径" fill="#000000"></path>
                    <path d="M25.3418555,5.32857422 C25.495957,5.32857422 25.6471289,5.26587891 25.7560547,5.15689453 C25.8650391,5.04791016 25.927793,4.89673828 25.927793,4.74263672 C25.927793,4.58794922 25.8650977,4.43736328 25.7560547,4.32837891 C25.6471289,4.21880859 25.495957,4.15669922 25.3418555,4.15669922 C25.1877539,4.15669922 25.036582,4.21880859 24.9275977,4.32837891 C24.8186133,4.43736328 24.755918,4.58794922 24.755918,4.74263672 C24.755918,4.89673828 24.8185547,5.04791016 24.9275977,5.15689453 C25.0366406,5.26587891 25.1878125,5.32857422 25.3418555,5.32857422 Z" id="路径" fill="#000000"></path>
                    <path d="M13.4033789,13.7033789 C13.5574805,13.7033789 13.7086523,13.6406836 13.8175781,13.5316992 C13.9265625,13.4227148 13.9893164,13.271543 13.9893164,13.1174414 C13.9893164,12.9633398 13.9266211,12.812168 13.8175781,12.7031836 C13.7086523,12.5941992 13.5574805,12.5315039 13.4033789,12.5315039 C13.2492773,12.5315039 13.0981055,12.5941992 12.9891211,12.7031836 C12.8801367,12.812168 12.8174414,12.9633398 12.8174414,13.1174414 C12.8174414,13.271543 12.8800781,13.4227148 12.9891211,13.5316992 C13.0981055,13.6406836 13.2493359,13.7033789 13.4033789,13.7033789 Z" id="路径" fill="#000000"></path>
                    <path d="M16.5967383,13.7033789 C16.7508398,13.7033789 16.9020117,13.6406836 17.0109375,13.5316992 C17.1199219,13.4227148 17.1826758,13.271543 17.1826758,13.1174414 C17.1826758,12.9633398 17.1199805,12.812168 17.0109375,12.7031836 C16.9020117,12.5941992 16.7508398,12.5315039 16.5967383,12.5315039 C16.4419922,12.5315039 16.2914648,12.5941992 16.1824805,12.7031836 C16.0734961,12.812168 16.0108008,12.9633398 16.0108008,13.1174414 C16.0108008,13.271543 16.0734375,13.4227148 16.1824805,13.5316992 C16.2914648,13.6406836 16.4426953,13.7033789 16.5967383,13.7033789 Z" id="路径" fill="#000000"></path>
                    <path d="M9.02296875,23.4375586 C8.86880859,23.4375586 8.71769531,23.5002539 8.60871094,23.6092383 C8.49972656,23.7182227 8.43703125,23.8693945 8.43703125,24.0234961 C8.43703125,24.1775977 8.49966797,24.3287695 8.60871094,24.4377539 C8.71775391,24.5467383 8.86880859,24.6094336 9.02296875,24.6094336 C9.17707031,24.6094336 9.32824219,24.5467383 9.43716797,24.4377539 C9.54615234,24.3287695 9.60890625,24.1781836 9.60890625,24.0234961 C9.60890625,23.8693945 9.54621094,23.7182227 9.43716797,23.6092383 C9.32824219,23.5002539 9.17759766,23.4375586 9.02296875,23.4375586 Z" id="路径" fill="#000000"></path>
                </g>
            </g>
        </g>
    </g>
</svg>