<?xml version="1.0" encoding="UTF-8" standalone="no"?>
<svg width="184px" height="106px" viewBox="0 0 184 106" version="1.1" xmlns="http://www.w3.org/2000/svg" xmlns:xlink="http://www.w3.org/1999/xlink">
    <!-- Generator: Sketch 49 (51002) - http://www.bohemiancoding.com/sketch -->
    <title>Group 7</title>
    <desc>Created with Sketch.</desc>
    <defs></defs>
    <g id="Symbols" stroke="none" stroke-width="1" fill="none" fill-rule="evenodd">
        <g id="所有报表－燃尽图" transform="translate(-48.000000, -42.000000)">
            <g id="Group">
                <g transform="translate(30.000000, 18.000000)">
                    <g id="Group-7" transform="translate(18.000000, 24.000000)">
                        <g id="Group-8" transform="translate(0.000000, 34.000000)" fill="#000000" fill-opacity="0.08">
                            <g id="Group-6">
                                <g id="Rectangle-4">
                                    <rect x="0" y="0" width="80" height="8" rx="4"></rect>
                                    <rect x="90" y="0" width="40" height="8" rx="4"></rect>
                                    <rect x="140" y="0" width="44" height="8" rx="4"></rect>
                                </g>
                            </g>
                            <g id="Group-6" transform="translate(0.000000, 16.000000)">
                                <g id="Rectangle-4">
                                    <rect x="0" y="0" width="80" height="8" rx="4"></rect>
                                    <rect x="90" y="0" width="40" height="8" rx="4"></rect>
                                    <rect x="140" y="0" width="44" height="8" rx="4"></rect>
                                </g>
                            </g>
                            <g id="Group-6" transform="translate(0.000000, 32.000000)">
                                <g id="Rectangle-4">
                                    <rect x="0" y="0" width="80" height="8" rx="4"></rect>
                                    <rect x="90" y="0" width="40" height="8" rx="4"></rect>
                                    <rect x="140" y="0" width="44" height="8" rx="4"></rect>
                                </g>
                            </g>
                            <g id="Group-6" transform="translate(0.000000, 48.000000)">
                                <g id="Rectangle-4">
                                    <rect x="0" y="0" width="80" height="8" rx="4"></rect>
                                    <rect x="90" y="0" width="40" height="8" rx="4"></rect>
                                    <rect x="140" y="0" width="44" height="8" rx="4"></rect>
                                </g>
                            </g>
                            <g id="Group-6" transform="translate(0.000000, 64.000000)">
                                <g id="Rectangle-4">
                                    <rect x="0" y="0" width="80" height="8" rx="4"></rect>
                                    <rect x="90" y="0" width="40" height="8" rx="4"></rect>
                                    <rect x="140" y="0" width="44" height="8" rx="4"></rect>
                                </g>
                            </g>
                        </g>
                        <g id="Group-4">
                            <path d="M39.6666667,12 L45.6666667,12" id="Line-4" stroke-opacity="0.36" stroke="#000000" stroke-width="2" stroke-linecap="round" stroke-linejoin="round"></path>
                            <path d="M89,12 L95,12" id="Line-4" stroke-opacity="0.36" stroke="#000000" stroke-width="2" stroke-linecap="round" stroke-linejoin="round"></path>
                            <path d="M138.333333,12 L144.333333,12" id="Line-4" stroke-opacity="0.36" stroke="#000000" stroke-width="2" stroke-linecap="round" stroke-linejoin="round"></path>
                            <g id="Group-2" transform="translate(148.000000, 0.000000)">
                                <rect id="Rectangle-4" fill-opacity="0.8" fill="#F44336" x="0" y="0" width="36" height="24" rx="2"></rect>
                                <g id="ic_bug_report_black_24px" transform="translate(10.000000, 4.000000)">
                                    <polygon id="Shape" points="0 0 16 0 16 16 0 16"></polygon>
                                    <path d="M12.5714286,5.77777778 L10.765,5.77777778 C10.4757143,5.23301587 10.0771429,4.76507937 9.595,4.40888889 L10.6428571,3.27047619 L9.73642857,2.28571429 L8.34142857,3.80126984 C8.04571429,3.72444444 7.74357143,3.68253968 7.42857143,3.68253968 C7.11357143,3.68253968 6.81142857,3.72444444 6.52214286,3.80126984 L5.12071429,2.28571429 L4.21428571,3.27047619 L5.25571429,4.40888889 C4.78,4.76507937 4.38142857,5.23301587 4.09214286,5.77777778 L2.28571429,5.77777778 L2.28571429,7.17460317 L3.62928571,7.17460317 C3.59714286,7.40507937 3.57142857,7.63555556 3.57142857,7.87301587 L3.57142857,8.57142857 L2.28571429,8.57142857 L2.28571429,9.96825397 L3.57142857,9.96825397 L3.57142857,10.6666667 C3.57142857,10.904127 3.59714286,11.1346032 3.62928571,11.3650794 L2.28571429,11.3650794 L2.28571429,12.7619048 L4.09214286,12.7619048 C4.76071429,14.0120635 6.00142857,14.8571429 7.42857143,14.8571429 C8.85571429,14.8571429 10.0964286,14.0120635 10.765,12.7619048 L12.5714286,12.7619048 L12.5714286,11.3650794 L11.2278571,11.3650794 C11.26,11.1346032 11.2857143,10.904127 11.2857143,10.6666667 L11.2857143,9.96825397 L12.5714286,9.96825397 L12.5714286,8.57142857 L11.2857143,8.57142857 L11.2857143,7.87301587 C11.2857143,7.63555556 11.26,7.40507937 11.2278571,7.17460317 L12.5714286,7.17460317 L12.5714286,5.77777778 Z M8.71428571,11.3650794 L6.14285714,11.3650794 L6.14285714,9.96825397 L8.71428571,9.96825397 L8.71428571,11.3650794 Z M8.71428571,8.57142857 L6.14285714,8.57142857 L6.14285714,7.17460317 L8.71428571,7.17460317 L8.71428571,8.57142857 Z" id="Shape" fill="#FFFFFF" fill-rule="nonzero"></path>
                                </g>
                            </g>
                            <g id="Group-3" transform="translate(98.666667, 0.000000)">
                                <rect id="Rectangle-4" fill-opacity="0.8" fill="#4D90FE" x="0" y="0" width="36" height="24" rx="2"></rect>
                                <g id="baseline-explicit-24px" transform="translate(10.000000, 4.000000)">
                                    <polygon id="Shape" points="0 0 16 0 16 16 0 16"></polygon>
                                    <path d="M12.6666667,2 L3.33333333,2 C2.6,2 2,2.6 2,3.33333333 L2,12.6666667 C2,13.4 2.6,14 3.33333333,14 L12.6666667,14 C13.4,14 14,13.4 14,12.6666667 L14,3.33333333 C14,2.6 13.4,2 12.6666667,2 Z M10,6 L7.33333333,6 L7.33333333,7.33333333 L10,7.33333333 L10,8.66666667 L7.33333333,8.66666667 L7.33333333,10 L10,10 L10,11.3333333 L6,11.3333333 L6,4.66666667 L10,4.66666667 L10,6 Z" id="Shape" fill="#FFFFFF" fill-rule="nonzero"></path>
                                </g>
                            </g>
                            <g id="Group-5" transform="translate(49.333333, 0.000000)">
                                <rect id="Rectangle-4" fill-opacity="0.8" fill="#00BFA5" x="0" y="0" width="36" height="24" rx="2"></rect>
                                <g id="ic_bug_report_black_24px" transform="translate(10.000000, 4.000000)">
                                    <polygon id="Shape" points="0 0 16 0 16 16 0 16"></polygon>
                                    <g id="baseline-explore-24px" transform="translate(1.000000, 1.000000)">
                                        <path d="M7,0 C10.8659932,-7.10171439e-16 14,3.13400675 14,7 C14,10.8659932 10.8659932,14 7,14 C3.13400675,14 4.73447626e-16,10.8659932 0,7 C-4.73447626e-16,3.13400675 3.13400675,7.10171439e-16 7,0 Z M7,6.35833333 C7.35583333,6.35833333 7.64166667,6.64416667 7.64166667,7 C7.64166667,7.35583333 7.35583333,7.64166667 7,7.64166667 C6.64416667,7.64166667 6.35833333,7.35583333 6.35833333,7 C6.35833333,6.64416667 6.64416667,6.35833333 7,6.35833333 Z M8.2775,8.2775 L10.5,3.5 L5.7225,5.7225 L3.5,10.5 L8.2775,8.2775 Z" id="Combined-Shape" fill="#FFFFFF"></path>
                                        <polygon id="Shape" points="2.1 2.1 11.9 2.1 11.9 11.9 2.1 11.9"></polygon>
                                    </g>
                                </g>
                            </g>
                            <g id="Group-9">
                                <rect id="Rectangle-4" fill="#FFB100" x="0" y="0" width="36" height="24" rx="2"></rect>
                                <g id="baseline-bookmark-24px-(1)" transform="translate(10.000000, 4.000000)">
                                    <path d="M11.3333333,2 L4.66666667,2 C3.93333333,2 3.34,2.6 3.34,3.33333333 L3.33333333,14 L8,12 L12.6666667,14 L12.6666667,3.33333333 C12.6666667,2.6 12.0666667,2 11.3333333,2 Z" id="Shape" fill="#FFFFFF" fill-rule="nonzero"></path>
                                    <polygon id="Shape" points="0 0 16 0 16 16 0 16"></polygon>
                                </g>
                            </g>
                        </g>
                    </g>
                </g>
            </g>
        </g>
    </g>
</svg>