<?xml version="1.0" encoding="UTF-8"?>
<svg width="174px" height="159px" viewBox="0 0 174 159" version="1.1" xmlns="http://www.w3.org/2000/svg" xmlns:xlink="http://www.w3.org/1999/xlink">
    <!-- Generator: Sketch 52.2 (67145) - http://www.bohemiancoding.com/sketch -->
    <title>分组</title>
    <desc>Created with Sketch.</desc>
    <defs>
        <polygon id="path-1" points="0.000345652174 0.071234296 158.928911 0.071234296 158.928911 158.425993 0.000345652174 158.425993"></polygon>
        <polygon id="path-3" points="0.513830263 0.331068519 130.742596 0.331068519 130.742596 92.6507907 0.513830263 92.6507907"></polygon>
        <polygon id="path-5" points="0.513830263 0.329314286 130.742596 0.329314286 130.742596 15.8407429 0.513830263 15.8407429"></polygon>
    </defs>
    <g id="Page-1" stroke="none" stroke-width="1" fill="none" fill-rule="evenodd">
        <g id="测试执行－空" transform="translate(-771.000000, -262.000000)">
            <g id="测试执行-空">
                <g id="Group-8" transform="translate(703.000000, 212.000000)">
                    <g id="Group-6" transform="translate(68.000000, 50.000000)">
                        <g id="分组">
                            <g>
                                <mask id="mask-2" fill="white">
                                    <use xlink:href="#path-1"></use>
                                </mask>
                                <g id="Clip-2"></g>
                                <path d="M158.928911,79.2486422 C158.928911,122.977086 123.350933,158.42605 79.4646283,158.42605 C35.5771717,158.42605 0.000345652174,122.977086 0.000345652174,79.2486422 C0.000345652174,35.5201982 35.5771717,0.071234296 79.4646283,0.071234296 C123.350933,0.071234296 158.928911,35.5201982 158.928911,79.2486422" id="Fill-1" fill-opacity="0.3" fill="#3D42A2" mask="url(#mask-2)"></path>
                            </g>
                            <g transform="translate(24.000000, 28.000000)">
                                <path d="M123.707782,92.9814578 L7.26831667,92.9814578 C3.47678596,92.9814578 0.373579825,89.8622031 0.373579825,86.0497807 L0.373579825,7.0194205 C0.373579825,3.20699814 3.47678596,0.0877434783 7.26831667,0.0877434783 L123.707782,0.0877434783 C127.499887,0.0877434783 130.602518,3.20699814 130.602518,7.0194205 L130.602518,86.0497807 C130.602518,89.8622031 127.499887,92.9814578 123.707782,92.9814578" id="Fill-3" fill="#F2F4FD"></path>
                                <path d="M130.602518,15.7678323 L0.373579825,15.7678323 L0.373579825,6.68791304 C0.373579825,3.04300621 3.31303596,0.0878012422 6.93851842,0.0878012422 L124.03758,0.0878012422 C127.663637,0.0878012422 130.602518,3.04300621 130.602518,6.68791304 L130.602518,15.7678323 Z" id="Fill-5" fill="#DEE0EC"></path>
                                <path d="M11.9800075,8.32477081 C11.9800075,9.86475839 10.7378057,11.1130379 9.206025,11.1130379 C7.6742443,11.1130379 6.43261711,9.86475839 6.43261711,8.32477081 C6.43261711,6.78478323 7.6742443,5.53650373 9.206025,5.53650373 C10.7378057,5.53650373 11.9800075,6.78478323 11.9800075,8.32477081" id="Fill-7" fill="#FFFFFF"></path>
                                <path d="M22.0238579,8.32477081 C22.0238579,9.86475839 20.7816561,11.1130379 19.2498754,11.1130379 C17.7180947,11.1130379 16.4764675,9.86475839 16.4764675,8.32477081 C16.4764675,6.78478323 17.7180947,5.53650373 19.2498754,5.53650373 C20.7816561,5.53650373 22.0238579,6.78478323 22.0238579,8.32477081" id="Fill-9" fill="#FFFFFF"></path>
                                <path d="M57.2382092,11.1131534 L29.1605425,11.1131534 C27.635082,11.1131534 26.3871346,9.85851988 26.3871346,8.32488634 C26.3871346,6.7912528 27.635082,5.53661925 29.1605425,5.53661925 L57.2382092,5.53661925 C58.7636697,5.53661925 60.0116171,6.7912528 60.0116171,8.32488634 C60.0116171,9.85851988 58.7636697,11.1131534 57.2382092,11.1131534" id="Fill-11" fill="#FFFFFF"></path>
                            </g>
                            <g transform="translate(43.000000, 49.000000)">
                                <mask id="mask-4" fill="white">
                                    <use xlink:href="#path-3"></use>
                                </mask>
                                <g id="Clip-14"></g>
                                <path d="M123.848032,92.6507907 L7.40856711,92.6507907 C3.61646184,92.6507907 0.513830263,89.5507907 0.513830263,85.7619019 L0.513830263,7.21995741 C0.513830263,3.43049444 3.61646184,0.331068519 7.40856711,0.331068519 L123.848032,0.331068519 C127.640137,0.331068519 130.742769,3.43049444 130.742769,7.21995741 L130.742769,85.7619019 C130.742769,89.5507907 127.640137,92.6507907 123.848032,92.6507907" id="Fill-13" fill="#F2F4FD" mask="url(#mask-4)"></path>
                            </g>
                            <g transform="translate(43.000000, 49.000000)">
                                <mask id="mask-6" fill="white">
                                    <use xlink:href="#path-5"></use>
                                </mask>
                                <g id="Clip-16"></g>
                                <path d="M130.742769,15.8407429 L0.513830263,15.8407429 L0.513830263,6.85845714 C0.513830263,3.25217143 3.4532864,0.329314286 7.07876886,0.329314286 L124.17783,0.329314286 C127.803313,0.329314286 130.742769,3.25217143 130.742769,6.85845714 L130.742769,15.8407429 Z" id="Fill-15" fill="#DEE0EC" mask="url(#mask-6)"></path>
                            </g>
                            <path d="M55,58 C55,59.6569298 53.6570689,61 52.0003107,61 C50.3435526,61 49,59.6569298 49,58 C49,56.3430702 50.3435526,55 52.0003107,55 C53.6570689,55 55,56.3430702 55,58" id="Fill-17" fill="#FFFFFF"></path>
                            <path d="M65,58 C65,59.6569298 63.6570689,61 62.0003107,61 C60.3435526,61 59,59.6569298 59,58 C59,56.3430702 60.3435526,55 62.0003107,55 C63.6570689,55 65,56.3430702 65,58" id="Fill-19" fill="#FFFFFF"></path>
                            <path d="M100.195667,61 L71.8043333,61 C70.2624438,61 69,59.6500932 69,58 C69,56.3499068 70.2624438,55 71.8043333,55 L100.195667,55 C101.737556,55 103,56.3499068 103,58 C103,59.6500932 101.737556,61 100.195667,61" id="Fill-21" fill="#FFFFFF"></path>
                            <polygon id="Fill-23" fill="#6776C3" points="34 115.304641 40.9881591 112 43 115.695359 36.0118409 119"></polygon>
                            <path d="M54.8919662,126.781882 C42.0340053,122.579627 35.0160796,108.750206 39.2183468,95.8916986 C43.4200326,83.033773 57.2500729,76.0164479 70.1080338,80.2181221 C82.9659947,84.4197964 89.9839204,98.2497989 85.7816532,111.107724 C81.5799674,123.966231 67.7499271,130.983557 54.8919662,126.781882" id="Fill-25" fill="#3D42A2"></path>
                            <path d="M57.0658843,120.129892 C47.8814601,117.128718 42.8688783,107.24976 45.8700564,98.065919 C48.8712345,88.8809399 58.7496385,83.8689345 67.9340627,86.870108 C77.1190558,89.8712816 82.1310688,99.7496707 79.1298906,108.934081 C76.1287125,118.11906 66.2503085,123.131066 57.0658843,120.129892" id="Fill-27" fill="#F2F4FD"></path>
                            <path d="M12.1617399,123.237961 L30.3927238,114.22321 C31.4341611,113.707205 32.719339,114.11694 33.2482212,115.131902 L35.7713451,119.979398 C36.3002273,120.99436 35.8798038,122.246867 34.8383665,122.761735 L16.6079658,131.777054 C15.5653623,132.292491 14.2807675,131.883324 13.7518852,130.867794 L11.2287614,126.020866 C10.6998792,125.005336 11.1197195,123.753398 12.1617399,123.237961" id="Fill-29" fill="#292E76"></path>
                            <path d="M63.2500649,106.468151 L60.5280536,102.170142 L62.6766822,100.809003 L65.3981274,105.107011 L63.2500649,106.468151 Z M58.9528077,109.190997 L56.2313625,104.892989 L58.379991,103.531282 L61.1014363,107.829291 L58.9528077,109.190997 Z M71.6294899,110.193168 L69.7174595,107.173634 C70.2489564,106.159007 70.5472512,105.036803 70.5846089,103.884024 L73.4447301,104.525526 L74,102.050675 L70.192354,101.195716 C69.9970755,100.627253 69.7417985,100.081438 69.4084102,99.5543078 C69.0755878,99.0277437 68.6906913,98.5640276 68.266739,98.1552326 L69.1140775,94.335661 L66.6399849,93.7802208 L65.991321,96.6304615 C64.9402137,96.1825988 63.7985425,95.9725394 62.6546072,96.0195338 L60.7420108,93 L58.5939483,94.3611399 L60.0158015,96.6072473 C59.6275088,96.7782391 59.2460083,96.9599887 58.8803566,97.1909975 L57.8060423,97.8715674 L56.4453197,95.7222799 L54.2972571,97.083986 L55.6579798,99.2332736 L54.5836655,99.9138435 C54.2180137,100.145419 53.8908516,100.41323 53.5704818,100.691233 L52.1486286,98.445126 L50,99.8068321 L51.9120304,102.8258 C50.696776,105.161933 50.7103606,108.059734 52.2210797,110.445126 C53.7317988,112.830518 56.3445673,114.080683 58.9754487,113.980466 L60.8874791,117 L63.0361076,115.638294 L61.6136884,113.392186 C62.0019811,113.221761 62.3840475,113.040011 62.7491333,112.808436 L63.8234476,112.127866 L65.1841702,114.277154 L67.3327988,112.916014 L65.9720761,110.766726 L67.0463904,110.086156 C67.4114761,109.854015 67.7386382,109.58677 68.059008,109.308767 L69.4808613,111.554308 L71.6294899,110.193168 Z" id="Fill-31" fill="#FFBA1B"></path>
                            <path d="M31.0045706,76.8016182 C30.886277,80.9584338 33.0712965,84.7509467 36.7298675,86.8769686 C37.675079,87.4261909 38.5344138,85.9905725 37.5914772,85.4424575 C34.431673,83.6071027 32.6094964,80.3787607 32.7107285,76.8016182 C32.7408706,75.7325171 31.0347128,75.7330708 31.0045706,76.8016182" id="Fill-33" fill="#292E76"></path>
                            <path d="M38,61.5589004 C38,55.9201729 33.1471428,51.4217414 27.4149615,52.0605786 C23.0290169,52.5496 19.4987978,56.1389605 19.0509887,60.5559826 C18.6161026,64.8446719 21.0062907,68.62003 24.5702218,70.2538703 L24.5449378,70.2504782 L24.8022735,74.4990282 C24.8281194,74.9247312 25.3152593,75.1486069 25.6512566,74.88968 L30.546254,71.1177139 C30.546254,71.1177139 38,69.0983099 38,61.5589004" id="Fill-35" fill="#292E76"></path>
                            <g id="分组-2" transform="translate(26.000000, 57.000000)">
                                <path d="M3.9,10.2502634 C3.9,10.9404636 3.34046365,11.5 2.64973656,11.5 C1.95953635,11.5 1.4,10.9404636 1.4,10.2502634 C1.4,9.56006322 1.95953635,9 2.64973656,9 C3.34046365,9 3.9,9.56006322 3.9,10.2502634" id="Fill-37" fill="#FFFFFF"></path>
                                <path d="M2.58019446,7 C2.59641728,6.13651954 2.84624867,5.36765931 3.44378911,4.70135155 C4.05971541,4.01408003 4.87247857,3.36816945 4.98874209,2.41800098 C5.03957359,1.99929228 4.91465789,1.57151817 4.68699769,1.20946829 C4.15218547,0.356753003 3.05930834,-0.133912404 2.0199665,0.0320979473 C0.732415554,0.237202887 -0.0149155696,1.47689793 0.000225726699,2.64406969" id="Stroke-39" stroke="#FFFFFF" stroke-width="2.5" stroke-linecap="round"></path>
                            </g>
                            <path d="M108.260076,119.971445 C102.455084,118.666691 98.1672784,113.679173 98.2407373,107.77655 L98.5559746,82.5358334 C97.6085275,81.8740017 96.9948271,80.8059026 97.0000329,79.6037181 C97.0081307,77.6050435 98.720245,75.9920076 100.824526,76.0000298 C102.92765,76.008052 104.627039,77.6354132 104.618363,79.6335149 C104.610844,81.4665883 103.170585,82.9753356 101.309239,83.2068334 L101.27974,84.5683159 C101.538871,88.3330214 104.388732,91.516117 108.313291,92.6822016 C108.464836,92.3206294 108.674223,91.988281 108.935089,91.7023468 C109.510036,91.0708847 110.288585,90.7179078 111.098947,90.7213459 L155.958655,90.8995534 C156.768439,90.9029915 157.544096,91.2616986 158.114416,91.8977447 C158.684735,92.5332178 159.003442,93.3938856 158.999972,94.2900803 C158.995923,95.185702 158.670274,96.0435048 158.095328,96.6749668 C157.519803,97.3058558 156.741254,97.6594057 155.93147,97.6559676 L111.071183,97.4777601 C109.628033,97.47203 108.42319,96.3603818 108.109688,94.870544 C105.249416,94.1502648 102.808496,92.5744749 101.150175,90.4852639 L101.044324,95.3163493 C100.945415,99.8334228 104.024329,103.712158 108.332957,105.025507 C108.847748,103.949386 109.871546,103.21822 111.048046,103.222804 L155.907755,103.400438 C157.594997,103.407314 158.956012,104.924657 158.949071,106.790965 C158.945601,107.68716 158.619952,108.544963 158.044427,109.175852 C157.468902,109.807314 156.690931,110.159718 155.880569,110.156852 L111.020861,109.979218 C109.570769,109.972915 108.361299,108.850379 108.055317,107.350227 C105.008216,106.541131 102.423849,104.700035 100.733715,102.256701 L100.664883,107.804628 C100.608198,112.342903 103.718925,116.215908 108.046641,117.526392 C108.409308,116.101878 109.596798,115.060138 111.000038,115.065295 L155.860325,115.243502 C156.670108,115.24694 157.445765,115.605648 158.016085,116.240548 C158.586404,116.876594 158.905112,117.736689 158.901063,118.631737 C158.898749,119.529651 158.571943,120.390319 157.994105,121.022354 C157.415688,121.654962 156.634246,122.00622 155.821571,121.999917 L110.961862,121.821709 C109.779578,121.811968 108.75925,121.061319 108.260076,119.971445" id="Fill-53" fill="#DEE0EC"></path>
                        </g>
                    </g>
                </g>
            </g>
        </g>
    </g>
</svg>