<?xml version="1.0" encoding="UTF-8"?>
<svg width="186px" height="151px" viewBox="0 0 186 151" version="1.1" xmlns="http://www.w3.org/2000/svg" xmlns:xlink="http://www.w3.org/1999/xlink">
    <!-- Generator: Sketch 52.5 (67469) - http://www.bohemiancoding.com/sketch -->
    <title>分组 5</title>
    <desc>Created with Sketch.</desc>
    <g id="测试" stroke="none" stroke-width="1" fill="none" fill-rule="evenodd">
        <g id="illustrations" transform="translate(-215.000000, -564.000000)">
            <g id="分组-5" transform="translate(215.000000, 564.000000)">
                <path d="M4,0 L22,0 C24.209139,-4.05812251e-16 26,1.790861 26,4 L26,14 C26,16.209139 24.209139,18 22,18 L4,18 C1.790861,18 2.705415e-16,16.209139 0,14 L0,4 C-2.705415e-16,1.790861 1.790861,4.05812251e-16 4,0 Z" id="Rectangle-7-Copy-5" fill="#E0E5FF"></path>
                <path d="M36,0 L54,0 C56.209139,-4.05812251e-16 58,1.790861 58,4 L58,14 C58,16.209139 56.209139,18 54,18 L36,18 C33.790861,18 32,16.209139 32,14 L32,4 C32,1.790861 33.790861,4.05812251e-16 36,0 Z" id="Rectangle-7-Copy-7" fill="#E0E5FF"></path>
                <path d="M68,0 L86,0 C88.209139,-4.05812251e-16 90,1.790861 90,4 L90,14 C90,16.209139 88.209139,18 86,18 L68,18 C65.790861,18 64,16.209139 64,14 L64,4 C64,1.790861 65.790861,4.05812251e-16 68,0 Z" id="Rectangle-7-Copy-8" fill="#E0E5FF"></path>
                <path d="M100,0 L118,0 C120.209139,-4.05812251e-16 122,1.790861 122,4 L122,14 C122,16.209139 120.209139,18 118,18 L100,18 C97.790861,18 96,16.209139 96,14 L96,4 C96,1.790861 97.790861,4.05812251e-16 100,0 Z" id="Rectangle-7-Copy-9" fill="#E0E5FF"></path>
                <path d="M132,0 L150,0 C152.209139,-4.05812251e-16 154,1.790861 154,4 L154,14 C154,16.209139 152.209139,18 150,18 L132,18 C129.790861,18 128,16.209139 128,14 L128,4 C128,1.790861 129.790861,4.05812251e-16 132,0 Z" id="Rectangle-7-Copy-10" fill="#E0E5FF"></path>
                <path d="M164,0 L182,0 C184.209139,-4.05812251e-16 186,1.790861 186,4 L186,14 C186,16.209139 184.209139,18 182,18 L164,18 C161.790861,18 160,16.209139 160,14 L160,4 C160,1.790861 161.790861,4.05812251e-16 164,0 Z" id="Rectangle-7-Copy-11" fill="#E0E5FF"></path>
                <rect id="Rectangle-4-Copy-2" fill="#CFD5F1" x="5" y="5" width="16" height="8" rx="2"></rect>
                <rect id="Rectangle-4-Copy-3" fill="#CFD5F1" x="37" y="5" width="16" height="8" rx="2"></rect>
                <rect id="Rectangle-4-Copy-4" fill="#CFD5F1" x="69" y="5" width="16" height="8" rx="2"></rect>
                <rect id="Rectangle-4-Copy-5" fill="#CFD5F1" x="101" y="5" width="16" height="8" rx="2"></rect>
                <rect id="Rectangle-4-Copy-6" fill="#CFD5F1" x="133" y="5" width="16" height="8" rx="2"></rect>
                <rect id="Rectangle-4-Copy-7" fill="#CFD5F1" x="165" y="5" width="16" height="8" rx="2"></rect>
                <path d="M4,23 L22,23 C24.209139,23 26,24.790861 26,27 L26,147 C26,149.209139 24.209139,151 22,151 L4,151 C1.790861,151 2.705415e-16,149.209139 0,147 L0,27 C-2.705415e-16,24.790861 1.790861,23 4,23 Z" id="Rectangle-7-Copy-6" fill="#F2F4FD"></path>
                <path d="M36,23 L54,23 C56.209139,23 58,24.790861 58,27 L58,147 C58,149.209139 56.209139,151 54,151 L36,151 C33.790861,151 32,149.209139 32,147 L32,27 C32,24.790861 33.790861,23 36,23 Z" id="Rectangle-7-Copy-12" fill="#F2F4FD"></path>
                <path d="M68,23 L86,23 C88.209139,23 90,24.790861 90,27 L90,147 C90,149.209139 88.209139,151 86,151 L68,151 C65.790861,151 64,149.209139 64,147 L64,27 C64,24.790861 65.790861,23 68,23 Z" id="Rectangle-7-Copy-13" fill="#F2F4FD"></path>
                <path d="M100,23 L118,23 C120.209139,23 122,24.790861 122,27 L122,147 C122,149.209139 120.209139,151 118,151 L100,151 C97.790861,151 96,149.209139 96,147 L96,27 C96,24.790861 97.790861,23 100,23 Z" id="Rectangle-7-Copy-14" fill="#F2F4FD"></path>
                <path d="M132,23 L150,23 C152.209139,23 154,24.790861 154,27 L154,147 C154,149.209139 152.209139,151 150,151 L132,151 C129.790861,151 128,149.209139 128,147 L128,27 C128,24.790861 129.790861,23 132,23 Z" id="Rectangle-7-Copy-15" fill="#F2F4FD"></path>
                <path d="M164,23 L182,23 C184.209139,23 186,24.790861 186,27 L186,147 C186,149.209139 184.209139,151 182,151 L164,151 C161.790861,151 160,149.209139 160,147 L160,27 C160,24.790861 161.790861,23 164,23 Z" id="Rectangle-7-Copy-16" fill="#F2F4FD"></path>
                <g id="Group-6" transform="translate(6.000000, 29.000000)">
                    <rect id="Rectangle-7-Copy-2" fill="#6776C4" x="0" y="0" width="142" height="20" rx="6"></rect>
                    <circle id="Oval-2-Copy-6" fill="#E0E5FF" cx="9" cy="10" r="4"></circle>
                    <rect id="Rectangle-9-Copy-15" fill="#E0E5FF" x="18" y="6" width="26" height="8" rx="4"></rect>
                </g>
                <g id="Group-6-Copy-2" transform="translate(6.000000, 81.000000)">
                    <rect id="Rectangle-7-Copy-2" fill="#FFBA1C" x="0" y="0" width="110" height="20" rx="6"></rect>
                    <circle id="Oval-2-Copy-6" fill="#3D42A3" cx="9" cy="10" r="4"></circle>
                    <rect id="Rectangle-9-Copy-15" fill="#3D42A3" x="18" y="6" width="26" height="8" rx="4"></rect>
                </g>
                <path d="M137.387406,115.423302 L137.387406,130.026912 C137.387406,131.131481 136.491975,132.026912 135.387406,132.026912 L121.666501,132.026912 C120.561931,132.026912 119.666501,131.131481 119.666501,130.026912 L119.666501,115.423302 L108.004447,115.423302 C107.559618,115.423302 107.127484,115.275006 106.776388,115.001868 C105.90457,114.32363 105.747642,113.067061 106.425881,112.195243 L126.948387,85.8152879 C127.050236,85.6843694 127.167976,85.5666295 127.298894,85.4647804 C128.170713,84.7865422 129.427281,84.9434698 130.10552,85.8152879 L150.628026,112.195243 C150.901164,112.546339 151.04946,112.978473 151.04946,113.423302 C151.04946,114.527872 150.154029,115.423302 149.04946,115.423302 L137.387406,115.423302 Z" id="Combined-Shape" fill="#2A2E76" transform="translate(128.526912, 108.526912) rotate(-45.000000) translate(-128.526912, -108.526912) "></path>
                <g id="Group-6-Copy-3" transform="translate(6.000000, 55.000000)">
                    <rect id="Rectangle-7-Copy-2" fill="#3D42A3" x="0" y="0" width="110" height="20" rx="6"></rect>
                    <circle id="Oval-2-Copy-6" fill="#F2F4FD" cx="9" cy="10" r="4"></circle>
                    <rect id="Rectangle-9-Copy-15" fill="#F2F4FD" x="18" y="6" width="26" height="8" rx="4"></rect>
                </g>
            </g>
        </g>
    </g>
</svg>